<svg width="149" height="146" viewBox="0 0 149 146" fill="none" xmlns="http://www.w3.org/2000/svg">
<path d="M146.353 22.3662C145.077 89.4651 102.994 143.245 74.938 143.245C46.8822 143.245 4.79864 89.4651 3.52338 22.3662C8.66074 21.7775 13.4458 19.4966 17.1029 15.8931C20.7601 12.2897 23.075 7.57492 23.6725 2.513H126.203C126.801 7.57492 129.116 12.2897 132.773 15.8931C136.43 19.4966 141.215 21.7775 146.353 22.3662V22.3662Z" fill="#E6FDFF"/>
<path d="M91.2613 138.219C86.3649 141.283 80.7336 143.017 74.938 143.245C49.4328 143.245 4.79864 89.4653 3.52338 22.3664C6.95983 21.9866 10.2628 20.8383 13.1802 19.0091C16.0976 17.1798 18.5522 14.718 20.3568 11.8115C27.7533 73.3817 62.6955 122.638 91.2613 138.219Z" fill="#0EB0C1"/>
<path d="M78.5084 95.4966C96.8204 95.4966 111.665 80.8698 111.665 62.8267C111.665 44.7836 96.8204 30.1568 78.5084 30.1568C60.1964 30.1568 45.3516 44.7836 45.3516 62.8267C45.3516 80.8698 60.1964 95.4966 78.5084 95.4966Z" fill="#0066CF"/>
<path d="M86.4152 94.4911C81.5458 95.6275 76.4786 95.6632 71.5933 94.5956C66.708 93.5279 62.1314 91.3845 58.2063 88.3262C54.2813 85.2678 51.1098 81.3737 48.9294 76.9359C46.749 72.498 45.6164 67.6314 45.6164 62.7008C45.6164 57.7703 46.749 52.9037 48.9294 48.4658C51.1098 44.0279 54.2813 40.1338 58.2063 37.0755C62.1314 34.0171 66.708 31.8738 71.5933 30.8061C76.4786 29.7384 81.5458 29.7741 86.4152 30.9105C79.1512 32.6058 72.6803 36.6667 68.0499 42.436C63.4194 48.2054 60.9004 55.3455 60.9004 62.7008C60.9004 70.0562 63.4194 77.1963 68.0499 82.9656C72.6803 88.7349 79.1512 92.7959 86.4152 94.4911V94.4911Z" fill="#062D55"/>
<path d="M86.1602 52.7745C88.9774 52.7745 91.2612 50.5242 91.2612 47.7484C91.2612 44.9725 88.9774 42.7222 86.1602 42.7222C83.343 42.7222 81.0591 44.9725 81.0591 47.7484C81.0591 50.5242 83.343 52.7745 86.1602 52.7745Z" fill="#155E3A"/>
<path d="M68.3064 80.418C72.5323 80.418 75.958 77.0426 75.958 72.8788C75.958 68.715 72.5323 65.3396 68.3064 65.3396C64.0806 65.3396 60.6548 68.715 60.6548 72.8788C60.6548 77.0426 64.0806 80.418 68.3064 80.418Z" fill="#155E3A"/>
<path d="M108.35 20.1046C113.28 20.1046 117.277 18.3044 117.277 16.0837C117.277 13.863 113.28 12.0628 108.35 12.0628C103.42 12.0628 99.423 13.863 99.423 16.0837C99.423 18.3044 103.42 20.1046 108.35 20.1046Z" fill="white"/>
<path d="M114.216 25.8848C116.752 25.8848 118.807 24.9847 118.807 23.8744C118.807 22.764 116.752 21.8639 114.216 21.8639C111.681 21.8639 109.625 22.764 109.625 23.8744C109.625 24.9847 111.681 25.8848 114.216 25.8848Z" fill="white"/>
<path d="M74.9377 145.758C55.0437 145.758 23.6723 115.35 8.87924 69.8633C8.74398 69.5414 8.6781 69.1954 8.68581 68.8471C8.69351 68.4988 8.77462 68.1559 8.92398 67.8402C9.07335 67.5244 9.28771 67.2427 9.55346 67.0129C9.8192 66.7832 10.1305 66.6103 10.4677 66.5054C10.8048 66.4005 11.1604 66.3658 11.5119 66.4036C11.8634 66.4413 12.2031 66.5506 12.5094 66.7246C12.8157 66.8985 13.082 67.1333 13.2913 67.4141C13.5006 67.6949 13.6484 68.0154 13.7252 68.3555C27.7531 111.078 57.0841 140.732 74.9377 140.732C100.953 140.732 141.761 88.9626 143.802 24.6281C138.914 23.6131 134.431 21.2197 130.899 17.7395C127.367 14.2592 124.938 9.84219 123.908 5.02617H25.9677C24.9376 9.84219 22.5086 14.2592 18.9765 17.7395C15.4443 21.2197 10.9615 23.6131 6.07367 24.6281C6.49704 36.6007 8.29383 48.4878 11.4298 60.0623C11.5915 60.3961 11.6765 60.7609 11.6787 61.1308C11.6808 61.5006 11.6001 61.8664 11.4423 62.202C11.2844 62.5376 11.0534 62.8347 10.7656 63.0721C10.4778 63.3096 10.1403 63.4815 9.77729 63.5756C9.41428 63.6697 9.03465 63.6837 8.6655 63.6166C8.29636 63.5495 7.94679 63.403 7.64176 63.1874C7.33672 62.9719 7.08374 62.6926 6.90085 62.3696C6.71797 62.0466 6.6097 61.6879 6.58377 61.3189C3.15017 48.6858 1.26634 35.6927 0.972627 22.6176C0.969448 21.9925 1.20288 21.3886 1.62733 20.9239C2.05178 20.4592 2.63678 20.1671 3.2681 20.1046C7.85443 19.5609 12.1178 17.5 15.361 14.2588C18.6041 11.0176 20.6351 6.78803 21.1217 2.26179C21.1852 1.63975 21.4817 1.06334 21.9533 0.645119C22.4249 0.226899 23.0378 -0.00310135 23.6723 3.159e-05H126.203C126.838 -0.00310135 127.451 0.226899 127.922 0.645119C128.394 1.06334 128.69 1.63975 128.754 2.26179C129.24 6.78803 131.271 11.0176 134.514 14.2588C137.758 17.5 142.021 19.5609 146.607 20.1046C147.239 20.1671 147.824 20.4592 148.248 20.9239C148.673 21.3886 148.906 21.9925 148.903 22.6176C147.628 92.7322 103.249 145.758 74.9377 145.758Z" fill="black"/>
<path d="M78.5086 98.0097C71.4463 98.0097 64.5427 95.9463 58.6707 92.0803C52.7986 88.2144 48.2219 82.7196 45.5193 76.2907C42.8167 69.8619 42.1096 62.7878 43.4874 55.9629C44.8652 49.1381 48.266 42.8691 53.2597 37.9487C58.2535 33.0283 64.6159 29.6774 71.5424 28.3199C78.469 26.9623 85.6485 27.6591 92.1732 30.322C98.6978 32.9849 104.275 37.4944 108.198 43.2802C112.122 49.066 114.216 55.8683 114.216 62.8268C114.216 72.1579 110.454 81.1068 103.757 87.7049C97.061 94.303 87.9787 98.0097 78.5086 98.0097V98.0097ZM78.5086 32.67C72.4552 32.67 66.5378 34.4386 61.5047 37.7523C56.4715 41.066 52.5486 45.7758 50.2321 51.2863C47.9156 56.7967 47.3095 62.8602 48.4904 68.7101C49.6714 74.5599 52.5863 79.9334 56.8667 84.1509C61.1471 88.3684 66.6006 91.2405 72.5376 92.4041C78.4746 93.5678 84.6285 92.9705 90.2211 90.6881C95.8136 88.4056 100.594 84.5403 103.957 79.581C107.32 74.6218 109.115 68.7912 109.115 62.8268C109.115 54.8287 105.89 47.1582 100.15 41.5027C94.4107 35.8472 86.6259 32.67 78.5086 32.67V32.67Z" fill="black"/>
<path d="M75.9578 32.6697C75.2814 32.6697 74.6326 32.405 74.1543 31.9337C73.676 31.4624 73.4073 30.8232 73.4073 30.1567V22.6175C73.4073 21.951 73.676 21.3118 74.1543 20.8405C74.6326 20.3692 75.2814 20.1044 75.9578 20.1044C76.6343 20.1044 77.283 20.3692 77.7613 20.8405C78.2396 21.3118 78.5083 21.951 78.5083 22.6175V30.1567C78.5083 30.8232 78.2396 31.4624 77.7613 31.9337C77.283 32.405 76.6343 32.6697 75.9578 32.6697Z" fill="black"/>
<path d="M100.188 40.4608C99.689 40.4539 99.2028 40.3028 98.7899 40.0262C98.3771 39.7496 98.0557 39.3597 97.8656 38.9049C97.6755 38.45 97.6251 37.9502 97.7206 37.4673C97.8161 36.9845 98.0533 36.5399 98.4028 36.1886L103.759 30.9112C104.25 30.5482 104.858 30.372 105.47 30.4149C106.082 30.4578 106.659 30.7169 107.093 31.1446C107.527 31.5724 107.79 32.1401 107.833 32.7435C107.877 33.3469 107.698 33.9455 107.33 34.4295L101.974 39.7069C101.503 40.1804 100.861 40.4514 100.188 40.4608Z" fill="black"/>
<path d="M119.316 65.3397H111.665C110.988 65.3397 110.34 65.075 109.861 64.6037C109.383 64.1324 109.114 63.4932 109.114 62.8267C109.114 62.1602 109.383 61.5209 109.861 61.0497C110.34 60.5784 110.988 60.3136 111.665 60.3136H119.316C119.993 60.3136 120.642 60.5784 121.12 61.0497C121.598 61.5209 121.867 62.1602 121.867 62.8267C121.867 63.4932 121.598 64.1324 121.12 64.6037C120.642 65.075 119.993 65.3397 119.316 65.3397Z" fill="black"/>
<path d="M106.819 94.4915C106.147 94.4821 105.505 94.2111 105.034 93.7376L99.678 88.4602C99.3096 87.9762 99.1307 87.3776 99.1743 86.7742C99.2178 86.1708 99.4808 85.6031 99.9149 85.1753C100.349 84.7476 100.925 84.4885 101.538 84.4456C102.15 84.4027 102.758 84.5789 103.249 84.9419L108.605 90.2193C108.954 90.5706 109.192 91.0152 109.287 91.498C109.383 91.9809 109.332 92.4807 109.142 92.9356C108.952 93.3904 108.631 93.7803 108.218 94.0569C107.805 94.3335 107.319 94.4846 106.819 94.4915V94.4915Z" fill="black"/>
<path d="M74.1734 107.308C73.4969 107.308 72.8482 107.043 72.3699 106.572C71.8915 106.1 71.6228 105.461 71.6228 104.795V97.2556C71.6228 96.5891 71.8915 95.9498 72.3699 95.4786C72.8482 95.0073 73.4969 94.7425 74.1734 94.7425C74.8498 94.7425 75.4985 95.0073 75.9768 95.4786C76.4552 95.9498 76.7239 96.5891 76.7239 97.2556V104.795C76.7239 105.125 76.6579 105.452 76.5297 105.756C76.4015 106.061 76.2137 106.338 75.9768 106.572C75.74 106.805 75.4588 106.99 75.1494 107.117C74.84 107.243 74.5083 107.308 74.1734 107.308Z" fill="black"/>
<path d="M46.3719 95.4967C45.8727 95.4898 45.3866 95.3387 44.9737 95.0621C44.5608 94.7855 44.2394 94.3956 44.0494 93.9408C43.8593 93.4859 43.8088 92.9861 43.9043 92.5032C43.9998 92.0204 44.237 91.5758 44.5866 91.2245L49.9427 85.9471C50.4338 85.5841 51.0414 85.4079 51.6538 85.4508C52.2662 85.4937 52.8423 85.7528 53.2765 86.1805C53.7106 86.6083 53.9736 87.176 54.0171 87.7794C54.0606 88.3828 53.8818 88.9814 53.5134 89.4654L48.1573 94.7428C47.6864 95.2163 47.0447 95.4873 46.3719 95.4967Z" fill="black"/>
<path d="M42.8007 65.3397H35.1492C34.4727 65.3397 33.824 65.075 33.3457 64.6037C32.8674 64.1324 32.5987 63.4932 32.5987 62.8267C32.5987 62.1602 32.8674 61.5209 33.3457 61.0497C33.824 60.5784 34.4727 60.3136 35.1492 60.3136H42.8007C43.4772 60.3136 44.1259 60.5784 44.6042 61.0497C45.0826 61.5209 45.3513 62.1602 45.3513 62.8267C45.3513 63.4932 45.0826 64.1324 44.6042 64.6037C44.1259 65.075 43.4772 65.3397 42.8007 65.3397Z" fill="black"/>
<path d="M50.708 43.979C50.0352 43.9696 49.3935 43.6986 48.9226 43.2251L43.5665 37.9477C43.1981 37.4637 43.0193 36.8651 43.0628 36.2617C43.1063 35.6583 43.3693 35.0906 43.8034 34.6628C44.2376 34.2351 44.8137 33.976 45.4261 33.9331C46.0385 33.8902 46.6461 34.0664 47.1372 34.4294L52.4933 39.7068C52.8429 40.0581 53.0801 40.5027 53.1756 40.9855C53.2711 41.4684 53.2206 41.9682 53.0305 42.4231C52.8405 42.8779 52.5191 43.2678 52.1062 43.5444C51.6933 43.821 51.2072 43.9721 50.708 43.979V43.979Z" fill="black"/>
<path d="M86.16 55.2876C84.6466 55.2876 83.1673 54.8455 81.909 54.0171C80.6507 53.1886 79.67 52.0112 79.0908 50.6336C78.5117 49.256 78.3602 47.7401 78.6554 46.2776C78.9507 44.8151 79.6794 43.4718 80.7495 42.4174C81.8196 41.363 83.1829 40.645 84.6672 40.3541C86.1515 40.0632 87.6899 40.2125 89.0881 40.7831C90.4862 41.3537 91.6812 42.3201 92.522 43.5599C93.3628 44.7997 93.8115 46.2573 93.8115 47.7484C93.8115 49.748 93.0054 51.6656 91.5704 53.0795C90.1355 54.4933 88.1893 55.2876 86.16 55.2876V55.2876ZM86.16 45.2354C85.6555 45.2354 85.1624 45.3828 84.743 45.6589C84.3235 45.935 83.9966 46.3275 83.8036 46.7867C83.6105 47.2459 83.56 47.7512 83.6584 48.2387C83.7569 48.7262 83.9998 49.174 84.3565 49.5254C84.7132 49.8769 85.1676 50.1162 85.6624 50.2132C86.1571 50.3102 86.67 50.2604 87.136 50.0702C87.602 49.88 88.0004 49.5579 88.2806 49.1446C88.5609 48.7314 88.7105 48.2455 88.7105 47.7484C88.7105 47.0819 88.4418 46.4427 87.9634 45.9714C87.4851 45.5001 86.8364 45.2354 86.16 45.2354Z" fill="black"/>
<path d="M63.9701 55.5385C63.2973 55.529 62.6556 55.2581 62.1847 54.7846C61.3077 54.1365 60.5823 53.3103 60.0576 52.3619C59.5328 51.4135 59.221 50.3651 59.1433 49.2876C59.0656 48.2102 59.2238 47.1289 59.6071 46.1169C59.9905 45.105 60.59 44.186 61.3652 43.4222C62.1403 42.6584 63.073 42.0676 64.1001 41.6899C65.1271 41.3122 66.2246 41.1564 67.3181 41.233C68.4116 41.3095 69.4756 41.6167 70.4381 42.1338C71.4006 42.6508 72.2391 43.3655 72.8969 44.2297C73.1685 44.6948 73.2819 45.2335 73.2204 45.7667C73.1589 46.2999 72.9258 46.7997 72.5552 47.193C72.1846 47.5863 71.6959 47.8523 71.1608 47.9522C70.6256 48.052 70.0721 47.9805 69.5812 47.748C69.2247 47.4036 68.7735 47.1698 68.2835 47.0757C67.7934 46.9817 67.2861 47.0313 66.8245 47.2186C66.3628 47.4059 65.9671 47.7226 65.6864 48.1294C65.4057 48.5362 65.2524 49.0152 65.2453 49.5071C65.2549 50.17 65.5299 50.8023 66.0105 51.2663C66.36 51.6175 66.5972 52.0621 66.6927 52.545C66.7882 53.0278 66.7378 53.5276 66.5477 53.9825C66.3576 54.4374 66.0362 54.8273 65.6234 55.1039C65.2105 55.3804 64.7243 55.5316 64.2251 55.5385H63.9701Z" fill="black"/>
<path d="M94.5771 78.6589C92.5588 78.6305 90.6337 77.8176 89.221 76.3971C88.9286 76.1811 88.6868 75.9057 88.5119 75.5895C88.337 75.2734 88.2331 74.9239 88.2072 74.5648C88.1813 74.2056 88.234 73.8452 88.3618 73.5079C88.4895 73.1706 88.6894 72.8642 88.9478 72.6096C89.2062 72.355 89.5171 72.1581 89.8594 72.0322C90.2018 71.9063 90.5676 71.8544 90.9321 71.8799C91.2966 71.9054 91.6512 72.0078 91.9721 72.1802C92.2929 72.3525 92.5724 72.5908 92.7917 72.8788C93.2685 73.3393 93.9095 73.5972 94.5771 73.5972C95.2447 73.5972 95.8857 73.3393 96.3624 72.8788C96.8297 72.409 97.0915 71.7775 97.0915 71.1197C97.0915 70.4619 96.8297 69.8303 96.3624 69.3605C95.9941 68.8766 95.8152 68.2779 95.8587 67.6745C95.9023 67.0711 96.1652 66.5034 96.5993 66.0757C97.0335 65.6479 97.6096 65.3888 98.222 65.3459C98.8344 65.303 99.442 65.4793 99.9332 65.8422C100.982 66.896 101.693 68.2298 101.98 69.6783C102.266 71.1268 102.115 72.6263 101.545 73.991C100.975 75.3556 100.01 76.5252 98.7718 77.355C97.5332 78.1848 96.0747 78.6381 94.5771 78.6589V78.6589Z" fill="black"/>
<path d="M68.3061 82.9311C65.6004 82.9311 63.0054 81.8721 61.0922 79.9869C59.1789 78.1017 58.1041 75.5449 58.1041 72.8789C58.1041 70.2128 59.1789 67.656 61.0922 65.7708C63.0054 63.8857 65.6004 62.8266 68.3061 62.8266C68.9826 62.8266 69.6313 63.0914 70.1096 63.5627C70.588 64.0339 70.8567 64.6732 70.8567 65.3397C70.8567 66.0062 70.588 66.6454 70.1096 67.1167C69.6313 67.588 68.9826 67.8527 68.3061 67.8527C67.1252 67.8362 65.975 68.2239 65.0519 68.9497C64.1287 69.6755 63.4898 70.6945 63.2441 71.8327C62.9984 72.971 63.1611 74.158 63.7046 75.1912C64.2481 76.2243 65.1385 77.0397 66.2241 77.4981C67.3097 77.9565 68.523 78.0296 69.6571 77.7048C70.7913 77.38 71.7759 76.6775 72.4429 75.7172C73.11 74.7569 73.4182 73.5983 73.315 72.439C73.2118 71.2798 72.7035 70.1917 71.8769 69.3606C71.5085 68.8766 71.3297 68.278 71.3732 67.6746C71.4167 67.0712 71.6797 66.5035 72.1138 66.0757C72.5479 65.648 73.1241 65.3889 73.7365 65.346C74.3489 65.3031 74.9564 65.4793 75.4476 65.8423C76.8457 67.2473 77.7946 69.0257 78.1766 70.9571C78.5585 72.8884 78.3568 74.8878 77.5965 76.7073C76.8361 78.5267 75.5505 80.0863 73.8991 81.1927C72.2476 82.299 70.303 82.9035 68.3061 82.9311Z" fill="black"/>
</svg>
