<svg xmlns="http://www.w3.org/2000/svg" width="624" height="417" viewBox="0 0 624 417">
  <g id="Group_1" data-name="Group 1" transform="translate(-633 -318)">
    <path id="Path_1" data-name="Path 1" d="M624,359.769c-18.088-13.652-39.675-21.079-59.862-31.018-22.885-11.359-45.97-28.725-52.966-55.156-4.8-18.021-1.6-38.227-8.794-55.265C492.684,195.5,467.1,185.782,444.115,186c-23.085.218-45.57,7.754-68.656,8.628-22.985.874-48.768-7.208-59.961-29.161-9.594-18.677-6.1-41.613-3.8-62.8s2.3-45.544-11.692-60.4c-9.894-10.594-24.485-13.652-38.276-15.509-37.376-4.915-75.451-3.823-112.228-12.342A173.122,173.122,0,0,1,109.53,0H0L.6,417H624Z" transform="translate(633 318)" fill="#7fccff" opacity="0.25"/>
    <path id="Path_2" data-name="Path 2" d="M421.3,275.316c-32.723-29.905-65.947-29.069-105.476-39.525-10.207-2.719-20.515-7.006-27.92-14.743C266.492,198.566,273.7,160.3,275.2,132.169c1.1-21.331-1.3-44.022-14.711-61.066-19.114-24.363-50.837-33.46-80.858-35.447-32.524-2.2-65.648,2.4-97.771-4.915C61.244,26.036,41.23,15.789,26.819,0H0L.5,330.108c1.4.209,2.8.313,4.2.522,26.919,3.451,53.939,12.548,74.354,31.16,11.708,5.542,40.229,38.48,26.219,55.21h356.4C463.979,370.887,454.328,305.64,421.3,275.316Z" transform="translate(633 318)" fill="#7fccff"/>
    <path id="Path_3" data-name="Path 3" d="M77.3,212.3a4.1,4.1,0,1,0-4.1-4.1A4.1,4.1,0,0,0,77.3,212.3Z" transform="translate(633 318)" fill="#0066cf"/>
    <path id="Path_4" data-name="Path 4" d="M60.4,311a4.1,4.1,0,1,0-4.1-4.1A4.1,4.1,0,0,0,60.4,311Z" transform="translate(633 318)" fill="#0066cf"/>
    <path id="Path_5" data-name="Path 5" d="M328.6,246a4.1,4.1,0,1,0-4.1-4.1A4.1,4.1,0,0,0,328.6,246Z" transform="translate(633 318)" fill="#0066cf"/>
    <path id="Path_6" data-name="Path 6" d="M125.8,73.5a4.4,4.4,0,1,0-4.4-4.4A4.4,4.4,0,0,0,125.8,73.5Z" transform="translate(633 318)" fill="#fff"/>
    <path id="Path_7" data-name="Path 7" d="M295.4,201.6a7.2,7.2,0,1,0-7.2-7.2A7.2,7.2,0,0,0,295.4,201.6Z" transform="translate(633 318)" fill="#7fccff"/>
    <path id="Path_8" data-name="Path 8" d="M31,174.1a2.151,2.151,0,1,1,2.2-2.1A2.135,2.135,0,0,1,31,174.1Z" transform="translate(633 318)" fill="#0066cf"/>
    <path id="Path_9" data-name="Path 9" d="M244.1,124.7a2.151,2.151,0,1,1,2.2-2.1A2.075,2.075,0,0,1,244.1,124.7Z" transform="translate(633 318)" fill="#0066cf"/>
    <path id="Path_10" data-name="Path 10" d="M47.3,268a10.8,10.8,0,1,0-10.8-10.8A10.8,10.8,0,0,0,47.3,268Z" transform="translate(633 318)" fill="#d1ecff"/>
    <path id="Path_11" data-name="Path 11" d="M33.5,256.4H30.8v1.5h2.7l4.2,2v-5.5Z" transform="translate(633 318)" fill="#d1ecff"/>
    <path id="Path_12" data-name="Path 12" d="M28.4,254.5a2.7,2.7,0,1,1-2.7,2.7A2.754,2.754,0,0,1,28.4,254.5Z" transform="translate(633 318)" fill="#d1ecff"/>
    <path id="Path_13" data-name="Path 13" d="M61.2,256.4l-4.3-2v5.5l4.3-2h2.6v-1.5Z" transform="translate(633 318)" fill="#d1ecff"/>
    <path id="Path_14" data-name="Path 14" d="M66.2,259.8a2.7,2.7,0,1,1,2.7-2.7A2.689,2.689,0,0,1,66.2,259.8Z" transform="translate(633 318)" fill="#d1ecff"/>
    <path id="Path_15" data-name="Path 15" d="M47.3,264.9a7.7,7.7,0,1,0-7.7-7.7A7.7,7.7,0,0,0,47.3,264.9Z" transform="translate(633 318)" fill="#d1ecff"/>
    <path id="Path_16" data-name="Path 16" d="M48,243.3v-2.6H46.6v2.6l-2,4.2h5.5Z" transform="translate(633 318)" fill="#d1ecff"/>
    <path id="Path_17" data-name="Path 17" d="M50,238.3a2.7,2.7,0,1,1-2.7-2.7A2.689,2.689,0,0,1,50,238.3Z" transform="translate(633 318)" fill="#d1ecff"/>
    <path id="Path_18" data-name="Path 18" d="M44.6,266.8l2,4.2v2.7H48V271l2.1-4.2Z" transform="translate(633 318)" fill="#d1ecff"/>
    <path id="Path_19" data-name="Path 19" d="M47.3,278.8a2.7,2.7,0,1,0-2.7-2.7A2.7,2.7,0,0,0,47.3,278.8Z" transform="translate(633 318)" fill="#d1ecff"/>
    <path id="Path_20" data-name="Path 20" d="M38.3,247.3l-1.6-1.6-.9.8,1.6,1.6,1.3,3.7,3.3-3.2Z" transform="translate(633 318)" fill="#d1ecff"/>
    <path id="Path_21" data-name="Path 21" d="M34.8,246.9a2.2,2.2,0,1,0-2.2-2.2A2.2,2.2,0,0,0,34.8,246.9Z" transform="translate(633 318)" fill="#d1ecff"/>
    <path id="Path_22" data-name="Path 22" d="M58.8,267.8l-1.6-1.6-1.3-3.7-3.3,3.3,3.7,1.3,1.6,1.5Z" transform="translate(633 318)" fill="#d1ecff"/>
    <path id="Path_23" data-name="Path 23" d="M59.8,271.8a2.2,2.2,0,1,0-2.2-2.2A2.2,2.2,0,0,0,59.8,271.8Z" transform="translate(633 318)" fill="#d1ecff"/>
    <path id="Path_24" data-name="Path 24" d="M58.8,246.5l-.9-.8-1.6,1.6-3.7,1.3,3.3,3.2,1.3-3.7Z" transform="translate(633 318)" fill="#d1ecff"/>
    <path id="Path_25" data-name="Path 25" d="M59.8,246.9a2.2,2.2,0,1,0-2.2-2.2A2.2,2.2,0,0,0,59.8,246.9Z" transform="translate(633 318)" fill="#d1ecff"/>
    <path id="Path_26" data-name="Path 26" d="M42,265.8l-3.3-3.3-1.3,3.7-1.6,1.6.9.8,1.6-1.5Z" transform="translate(633 318)" fill="#d1ecff"/>
    <path id="Path_27" data-name="Path 27" d="M34.8,271.8a2.2,2.2,0,1,0-2.2-2.2A2.2,2.2,0,0,0,34.8,271.8Z" transform="translate(633 318)" fill="#d1ecff"/>
    <path id="Path_28" data-name="Path 28" d="M63.1,114.9a14.3,14.3,0,1,0-14.3-14.3A14.3,14.3,0,0,0,63.1,114.9Z" transform="translate(633 318)" fill="#0066cf"/>
    <path id="Path_29" data-name="Path 29" d="M45,98.3,41.5,98l-.2,2,3.5.2,5.4,3.1.5-7.3Z" transform="translate(633 318)" fill="#0066cf"/>
    <path id="Path_30" data-name="Path 30" d="M39.3,94.5a4.31,4.31,0,1,1-4.6,4A4.406,4.406,0,0,1,39.3,94.5Z" transform="translate(633 318)" fill="#0066cf"/>
    <path id="Path_31" data-name="Path 31" d="M81.4,101,76,97.9l-.5,7.3,5.8-2.2,3.5.2.1-1.9Z" transform="translate(633 318)" fill="#0066cf"/>
    <path id="Path_32" data-name="Path 32" d="M88,106a3.5,3.5,0,1,0-3.5-3.5A3.5,3.5,0,0,0,88,106Z" transform="translate(633 318)" fill="#0066cf"/>
    <path id="Path_33" data-name="Path 33" d="M63.1,110.7A10.1,10.1,0,1,0,53,100.6,10.1,10.1,0,0,0,63.1,110.7Z" transform="translate(633 318)" fill="#00adff"/>
    <path id="Path_34" data-name="Path 34" d="M61.4,107a3.9,3.9,0,1,0-3.9-3.9A3.9,3.9,0,0,0,61.4,107Z" transform="translate(633 318)" fill="#0066cf"/>
    <path id="Path_35" data-name="Path 35" d="M67,93.7a2.263,2.263,0,1,0,0,3.2A2.432,2.432,0,0,0,67,93.7Z" transform="translate(633 318)" fill="#0066cf"/>
    <path id="Path_36" data-name="Path 36" d="M62.3,82.3,62,78.8,60,79l.4,3.5-2.1,5.9,7.3-.8Z" transform="translate(633 318)" fill="#0066cf"/>
    <path id="Path_37" data-name="Path 37" d="M65.2,74.1A4.727,4.727,0,1,1,60,69.9,4.609,4.609,0,0,1,65.2,74.1Z" transform="translate(633 318)" fill="#0066cf"/>
    <path id="Path_38" data-name="Path 38" d="M60.9,113.6l3.2,5.3.4,3.5,1.9-.2-.3-3.5,2.1-5.8Z" transform="translate(633 318)" fill="#0066cf"/>
    <path id="Path_39" data-name="Path 39" d="M62.3,125.8a3.523,3.523,0,1,1,3.9,3.1A3.511,3.511,0,0,1,62.3,125.8Z" transform="translate(633 318)" fill="#0066cf"/>
    <path id="Path_40" data-name="Path 40" d="M50,88.8l-2.3-1.9-1.1,1.3,2.3,1.9,2.2,4.7L55,90.1Z" transform="translate(633 318)" fill="#0066cf"/>
    <path id="Path_41" data-name="Path 41" d="M47,83.6a2.983,2.983,0,1,1-4.2.4A2.994,2.994,0,0,1,47,83.6Z" transform="translate(633 318)" fill="#0066cf"/>
    <path id="Path_42" data-name="Path 42" d="M79.5,113.2l-2.3-1.9L75,106.6l-3.8,4.7,5,1.3,2.3,1.8Z" transform="translate(633 318)" fill="#0066cf"/>
    <path id="Path_43" data-name="Path 43" d="M78.5,118.3a4.046,4.046,0,1,1,5.7-.5A4.079,4.079,0,0,1,78.5,118.3Z" transform="translate(633 318)" fill="#0066cf"/>
    <path id="Path_44" data-name="Path 44" d="M78.2,86.5,77,85.4l-2,2.1-4.9,1.7,4.3,4.3,1.7-4.9Z" transform="translate(633 318)" fill="#0066cf"/>
    <path id="Path_45" data-name="Path 45" d="M81.6,86.2a2.97,2.97,0,1,1,0-4.2A3.085,3.085,0,0,1,81.6,86.2Z" transform="translate(633 318)" fill="#0066cf"/>
    <path id="Path_46" data-name="Path 46" d="M56.1,112l-4.3-4.3-1.7,4.9L48,114.7l1.2,1.2,2.1-2.1Z" transform="translate(633 318)" fill="#0066cf"/>
    <path id="Path_47" data-name="Path 47" d="M44.6,115.1a2.97,2.97,0,1,1,0,4.2A3.085,3.085,0,0,1,44.6,115.1Z" transform="translate(633 318)" fill="#0066cf"/>
    <path id="Path_48" data-name="Path 48" d="M63.1,144.8a44.2,44.2,0,1,1,44.2-44.2A44.214,44.214,0,0,1,63.1,144.8Zm0-87.5a43.3,43.3,0,1,0,43.3,43.3A43.318,43.318,0,0,0,63.1,57.3Z" transform="translate(633 318)" fill="#fff"/>
    <path id="Path_49" data-name="Path 49" d="M169.871,276.913a23.1,23.1,0,1,0-23.1-23.1A23.1,23.1,0,0,0,169.871,276.913Z" transform="translate(633 318)" fill="#0066cf"/>
    <path id="Path_50" data-name="Path 50" d="M147.979,226.184l-2.344,2.029,5.366,6.2,2.344-2.029Z" transform="translate(633 318)" fill="#0066cf"/>
    <path id="Path_51" data-name="Path 51" d="M160.871,234.513l-8.9,7.7-2.6-9.7,2.3-2Z" transform="translate(633 318)" fill="#0066cf"/>
    <path id="Path_52" data-name="Path 52" d="M149.071,219.913a6.454,6.454,0,1,1-9.1-.7A6.476,6.476,0,0,1,149.071,219.913Z" transform="translate(633 318)" fill="#0066cf"/>
    <path id="Path_53" data-name="Path 53" d="M191.752,281.519l2.343-2.029-5.366-6.2-2.344,2.029Z" transform="translate(633 318)" fill="#0066cf"/>
    <path id="Path_54" data-name="Path 54" d="M178.771,273.213l8.9-7.7,2.7,9.6-2.4,2.1Z" transform="translate(633 318)" fill="#0066cf"/>
    <path id="Path_55" data-name="Path 55" d="M201.915,284.59a5.7,5.7,0,1,0-5.983,5.4A5.7,5.7,0,0,0,201.915,284.59Z" transform="translate(633 318)" fill="#0066cf"/>
    <path id="Path_56" data-name="Path 56" d="M169.871,270.213a16.4,16.4,0,1,0-16.4-16.4A16.4,16.4,0,0,0,169.871,270.213Z" transform="translate(633 318)" fill="#00adff"/>
    <path id="Path_57" data-name="Path 57" d="M165.271,241.813a4.4,4.4,0,1,0,4.4,4.4A4.439,4.439,0,0,0,165.271,241.813Z" transform="translate(633 318)" fill="#0066cf"/>
    <path id="Path_58" data-name="Path 58" d="M165.271,257.013a4.4,4.4,0,1,0,4.4,4.4A4.439,4.439,0,0,0,165.271,257.013Z" transform="translate(633 318)" fill="#0066cf"/>
    <path id="Path_59" data-name="Path 59" d="M175.671,247.913a5.911,5.911,0,0,0-5.9,5.9,5.977,5.977,0,0,0,5.9,5.9,5.9,5.9,0,0,0,0-11.8Z" transform="translate(633 318)" fill="#0066cf"/>
    <path id="Path_60" data-name="Path 60" d="M193.675,227.782l-2.378-1.989-5.26,6.291,2.378,1.988Z" transform="translate(633 318)" fill="#0066cf"/>
    <path id="Path_61" data-name="Path 61" d="M187.471,241.913l-9-7.6,9.1-4.1,2.4,2Z" transform="translate(633 318)" fill="#0066cf"/>
    <path id="Path_62" data-name="Path 62" d="M199.771,228.813a7.1,7.1,0,1,1-.9-10A7.12,7.12,0,0,1,199.771,228.813Z" transform="translate(633 318)" fill="#0066cf"/>
    <path id="Path_63" data-name="Path 63" d="M146.074,279.836l2.378,1.988,5.26-6.29-2.378-1.988Z" transform="translate(633 318)" fill="#0066cf"/>
    <path id="Path_64" data-name="Path 64" d="M152.171,265.813l9,7.5-9.1,4.2-2.4-2Z" transform="translate(633 318)" fill="#0066cf"/>
    <path id="Path_65" data-name="Path 65" d="M149.5,288.474a6.5,6.5,0,1,0-9.189.252A6.5,6.5,0,0,0,149.5,288.474Z" transform="translate(633 318)" fill="#0066cf"/>
    <path id="Path_66" data-name="Path 66" d="M169.16,220.44l-2.6.156.414,6.888,2.6-.156Z" transform="translate(633 318)" fill="#0066cf"/>
    <path id="Path_67" data-name="Path 67" d="M173.471,232.613l-9.8.6,3.1-7.8,2.7-.2Z" transform="translate(633 318)" fill="#0066cf"/>
    <path id="Path_68" data-name="Path 68" d="M172.771,216.813a5.162,5.162,0,1,1-5.5-4.8A5.219,5.219,0,0,1,172.771,216.813Z" transform="translate(633 318)" fill="#0066cf"/>
    <path id="Path_69" data-name="Path 69" d="M170.6,287.209l2.6-.156-.414-6.888-2.6.156Z" transform="translate(633 318)" fill="#0066cf"/>
    <path id="Path_70" data-name="Path 70" d="M166.171,275.113l9.8-.6-3.1,7.8-2.6.1Z" transform="translate(633 318)" fill="#0066cf"/>
    <path id="Path_71" data-name="Path 71" d="M166.171,290.613a5.93,5.93,0,0,1,5.5-6.3,5.992,5.992,0,0,1,6.3,5.5,5.93,5.93,0,0,1-5.5,6.3A5.863,5.863,0,0,1,166.171,290.613Z" transform="translate(633 318)" fill="#0066cf"/>
    <path id="Path_72" data-name="Path 72" d="M202.713,259.821l.362-2.574-6.833-.961-.362,2.575Z" transform="translate(633 318)" fill="#0066cf"/>
    <path id="Path_73" data-name="Path 73" d="M189.971,261.613l1.4-9.7,7,4.6-.4,2.6Z" transform="translate(633 318)" fill="#0066cf"/>
    <path id="Path_74" data-name="Path 74" d="M206.471,263.813a4.794,4.794,0,1,1,5.4-4.1A4.817,4.817,0,0,1,206.471,263.813Z" transform="translate(633 318)" fill="#0066cf"/>
    <path id="Path_75" data-name="Path 75" d="M137.015,247.882l-.362,2.575,6.833.961.362-2.575Z" transform="translate(633 318)" fill="#0066cf"/>
    <path id="Path_76" data-name="Path 76" d="M149.771,246.013l-1.4,9.8-7-4.6.4-2.7Z" transform="translate(633 318)" fill="#0066cf"/>
    <path id="Path_77" data-name="Path 77" d="M132.471,242.913a5.657,5.657,0,1,1-6.4,4.8A5.729,5.729,0,0,1,132.471,242.913Z" transform="translate(633 318)" fill="#0066cf"/>
    <path id="Path_78" data-name="Path 78" d="M169.8,318.6a64.8,64.8,0,1,1,64.8-64.8A64.849,64.849,0,0,1,169.8,318.6Zm0-128.8a63.9,63.9,0,1,0,63.9,63.9A64.017,64.017,0,0,0,169.8,189.8Z" transform="translate(633 318)" fill="#fff"/>
    <path id="Path_79" data-name="Path 79" d="M335.778,343.254a16.288,16.288,0,1,0-16.288-16.288A16.288,16.288,0,0,0,335.778,343.254Z" transform="translate(633 318)" fill="#0066cf"/>
    <path id="Path_80" data-name="Path 80" d="M320.342,307.485l-1.653,1.431,3.784,4.371,1.652-1.43Z" transform="translate(633 318)" fill="#0066cf"/>
    <path id="Path_81" data-name="Path 81" d="M329.432,313.358l-6.276,5.429-1.833-6.84,1.622-1.41Z" transform="translate(633 318)" fill="#0066cf"/>
    <path id="Path_82" data-name="Path 82" d="M321.112,303.063a4.551,4.551,0,1,1-6.417-.494A4.566,4.566,0,0,1,321.112,303.063Z" transform="translate(633 318)" fill="#0066cf"/>
    <path id="Path_83" data-name="Path 83" d="M351.206,346.5l1.653-1.43-3.784-4.372-1.653,1.43Z" transform="translate(633 318)" fill="#0066cf"/>
    <path id="Path_84" data-name="Path 84" d="M342.053,340.645l6.276-5.429,1.9,6.769-1.693,1.481Z" transform="translate(633 318)" fill="#0066cf"/>
    <path id="Path_85" data-name="Path 85" d="M358.372,348.668a4.019,4.019,0,1,0-4.219,3.809A4.018,4.018,0,0,0,358.372,348.668Z" transform="translate(633 318)" fill="#0066cf"/>
    <path id="Path_86" data-name="Path 86" d="M335.778,338.53a11.564,11.564,0,1,0-11.564-11.564A11.564,11.564,0,0,0,335.778,338.53Z" transform="translate(633 318)" fill="#00adff"/>
    <path id="Path_87" data-name="Path 87" d="M332.534,318.505a3.1,3.1,0,1,0,3.1,3.1A3.13,3.13,0,0,0,332.534,318.505Z" transform="translate(633 318)" fill="#0066cf"/>
    <path id="Path_88" data-name="Path 88" d="M332.534,329.223a3.1,3.1,0,1,0,3.1,3.1A3.13,3.13,0,0,0,332.534,329.223Z" transform="translate(633 318)" fill="#0066cf"/>
    <path id="Path_89" data-name="Path 89" d="M339.868,322.806a4.168,4.168,0,0,0-4.161,4.16,4.214,4.214,0,0,0,4.161,4.16,4.16,4.16,0,1,0,0-8.32Z" transform="translate(633 318)" fill="#0066cf"/>
    <path id="Path_90" data-name="Path 90" d="M352.563,308.612l-1.677-1.4-3.709,4.435,1.677,1.4Z" transform="translate(633 318)" fill="#0066cf"/>
    <path id="Path_91" data-name="Path 91" d="M348.188,318.575l-6.346-5.358,6.416-2.891,1.693,1.41Z" transform="translate(633 318)" fill="#0066cf"/>
    <path id="Path_92" data-name="Path 92" d="M356.861,309.338a5.006,5.006,0,1,1-.635-7.051A5.02,5.02,0,0,1,356.861,309.338Z" transform="translate(633 318)" fill="#0066cf"/>
    <path id="Path_93" data-name="Path 93" d="M319,345.315l1.677,1.4,3.709-4.436-1.677-1.4Z" transform="translate(633 318)" fill="#0066cf"/>
    <path id="Path_94" data-name="Path 94" d="M323.3,335.428l6.346,5.288-6.416,2.961-1.692-1.41Z" transform="translate(633 318)" fill="#0066cf"/>
    <path id="Path_95" data-name="Path 95" d="M321.413,351.407a4.583,4.583,0,1,0-6.479.177A4.584,4.584,0,0,0,321.413,351.407Z" transform="translate(633 318)" fill="#0066cf"/>
    <path id="Path_96" data-name="Path 96" d="M335.276,303.435l-1.83.11.292,4.856,1.83-.11Z" transform="translate(633 318)" fill="#0066cf"/>
    <path id="Path_97" data-name="Path 97" d="M338.316,312.018l-6.91.423,2.186-5.5,1.9-.141Z" transform="translate(633 318)" fill="#0066cf"/>
    <path id="Path_98" data-name="Path 98" d="M337.823,300.877a3.64,3.64,0,1,1-3.878-3.384A3.68,3.68,0,0,1,337.823,300.877Z" transform="translate(633 318)" fill="#0066cf"/>
    <path id="Path_99" data-name="Path 99" d="M336.29,350.514l1.83-.11-.292-4.856-1.83.11Z" transform="translate(633 318)" fill="#0066cf"/>
    <path id="Path_100" data-name="Path 100" d="M333.169,341.985l6.91-.423-2.186,5.5-1.833.07Z" transform="translate(633 318)" fill="#0066cf"/>
    <path id="Path_101" data-name="Path 101" d="M333.169,352.914a4.182,4.182,0,0,1,3.878-4.442,4.224,4.224,0,0,1,4.442,3.878,4.181,4.181,0,0,1-3.878,4.442A4.133,4.133,0,0,1,333.169,352.914Z" transform="translate(633 318)" fill="#0066cf"/>
    <path id="Path_102" data-name="Path 102" d="M358.935,331.2l.255-1.816-4.818-.677-.255,1.816Z" transform="translate(633 318)" fill="#0066cf"/>
    <path id="Path_103" data-name="Path 103" d="M349.951,332.466l.987-6.839,4.936,3.243-.282,1.833Z" transform="translate(633 318)" fill="#0066cf"/>
    <path id="Path_104" data-name="Path 104" d="M361.585,334.017a3.38,3.38,0,1,1,3.808-2.891A3.4,3.4,0,0,1,361.585,334.017Z" transform="translate(633 318)" fill="#0066cf"/>
    <path id="Path_105" data-name="Path 105" d="M312.611,322.785l-.256,1.815,4.818.677.256-1.815Z" transform="translate(633 318)" fill="#0066cf"/>
    <path id="Path_106" data-name="Path 106" d="M321.605,321.466l-.987,6.91-4.936-3.243.282-1.9Z" transform="translate(633 318)" fill="#0066cf"/>
    <path id="Path_107" data-name="Path 107" d="M309.407,319.281a3.989,3.989,0,1,1-4.513,3.384A4.039,4.039,0,0,1,309.407,319.281Z" transform="translate(633 318)" fill="#0066cf"/>
    <path id="Path_108" data-name="Path 108" d="M335.728,372.649a45.691,45.691,0,1,1,45.691-45.692A45.726,45.726,0,0,1,335.728,372.649Zm0-90.819a45.057,45.057,0,1,0,45.057,45.057A45.14,45.14,0,0,0,335.728,281.83Z" transform="translate(633 318)" fill="#fff"/>
    <path id="Path_109" data-name="Path 109" d="M219.5,100.8A45.5,45.5,0,1,1,265,55.3,45.537,45.537,0,0,1,219.5,100.8Zm0-90A44.5,44.5,0,1,0,264,55.3,44.534,44.534,0,0,0,219.5,10.8Z" transform="translate(633 318)" fill="#0066cf"/>
    <path id="Path_110" data-name="Path 110" d="M219.5,69.6a14.3,14.3,0,1,0-14.3-14.3A14.3,14.3,0,0,0,219.5,69.6Z" transform="translate(633 318)" fill="#0066cf"/>
    <path id="Path_111" data-name="Path 111" d="M205.7,43.3l-2.8-2.2-1.2,1.6,2.8,2.1,2.8,5.6,4.4-5.8Z" transform="translate(633 318)" fill="#0066cf"/>
    <path id="Path_112" data-name="Path 112" d="M201.9,37.2a3.561,3.561,0,1,1-5,.6A3.54,3.54,0,0,1,201.9,37.2Z" transform="translate(633 318)" fill="#0066cf"/>
    <path id="Path_113" data-name="Path 113" d="M234.7,65.7l-2.8-5.6-4.5,5.8,6.1,1.3,2.8,2.2,1.2-1.6Z" transform="translate(633 318)" fill="#0066cf"/>
    <path id="Path_114" data-name="Path 114" d="M238,72.9a3.5,3.5,0,1,0-3.5-3.5A3.5,3.5,0,0,0,238,72.9Z" transform="translate(633 318)" fill="#0066cf"/>
    <path id="Path_115" data-name="Path 115" d="M219.5,65.5a10.2,10.2,0,1,0-10.2-10.2A10.2,10.2,0,0,0,219.5,65.5Z" transform="translate(633 318)" fill="#00adff"/>
    <path id="Path_116" data-name="Path 116" d="M218.6,54.4a3.323,3.323,0,1,0-4.7,0A3.32,3.32,0,0,0,218.6,54.4Z" transform="translate(633 318)" fill="#0066cf"/>
    <path id="Path_117" data-name="Path 117" d="M225.2,61a3.323,3.323,0,1,0-4.7,0A3.32,3.32,0,0,0,225.2,61Z" transform="translate(633 318)" fill="#0066cf"/>
    <path id="Path_118" data-name="Path 118" d="M233.1,43l2.5-2.4-1.3-1.4-2.5,2.5-5.9,2,5.2,5.2Z" transform="translate(633 318)" fill="#0066cf"/>
    <path id="Path_119" data-name="Path 119" d="M237.2,41.1a3.5,3.5,0,1,0-3.5-3.5A3.5,3.5,0,0,0,237.2,41.1Z" transform="translate(633 318)" fill="#0066cf"/>
    <path id="Path_120" data-name="Path 120" d="M207.9,61.7l-2,5.9-2.5,2.5,1.3,1.4,2.5-2.5,5.9-2.1Z" transform="translate(633 318)" fill="#0066cf"/>
    <path id="Path_121" data-name="Path 121" d="M201.8,76.5a3.5,3.5,0,1,0-3.5-3.5A3.5,3.5,0,0,0,201.8,76.5Z" transform="translate(633 318)" fill="#0066cf"/>
    <path id="Path_122" data-name="Path 122" d="M220.4,36.5V33.2h-1.8v3.3L216,41.9h7Z" transform="translate(633 318)" fill="#0066cf"/>
    <path id="Path_123" data-name="Path 123" d="M219.5,33.4a4,4,0,1,0-4-4A4,4,0,0,0,219.5,33.4Z" transform="translate(633 318)" fill="#0066cf"/>
    <path id="Path_124" data-name="Path 124" d="M220.4,76.9V73.8l2.3-5h-6.4l2.3,5v3.1Z" transform="translate(633 318)" fill="#0066cf"/>
    <path id="Path_125" data-name="Path 125" d="M216.4,79.7a3.1,3.1,0,1,1,3.1,3.1A3.052,3.052,0,0,1,216.4,79.7Z" transform="translate(633 318)" fill="#0066cf"/>
    <path id="Path_126" data-name="Path 126" d="M239.3,56V54.6h-2.6l-4.2-2V58l4.2-2Z" transform="translate(633 318)" fill="#0066cf"/>
    <path id="Path_127" data-name="Path 127" d="M240.3,57.6a2.3,2.3,0,1,0-2.3-2.3A2.3,2.3,0,0,0,240.3,57.6Z" transform="translate(633 318)" fill="#0066cf"/>
    <path id="Path_128" data-name="Path 128" d="M206.5,58.4V52.3l-4.7,2.2h-3v1.6h3Z" transform="translate(633 318)" fill="#0066cf"/>
    <path id="Path_129" data-name="Path 129" d="M197.6,50.9a4.4,4.4,0,1,1-4.4,4.4A4.439,4.439,0,0,1,197.6,50.9Z" transform="translate(633 318)" fill="#0066cf"/>
  </g>
</svg>
