<svg width="645" height="318" viewBox="0 0 645 318" fill="none" xmlns="http://www.w3.org/2000/svg">
<path d="M644.212 318H0.831086L0.21225 0H644.212V318Z" fill="white"/>
<path opacity="0.25" d="M644.424 274.297C625.744 263.892 603.451 258.231 582.603 250.656C558.969 241.998 535.128 228.762 527.904 208.616C522.95 194.881 526.252 179.48 518.822 166.494C508.81 149.095 482.39 141.686 458.652 141.853C434.811 142.019 411.589 147.763 387.749 148.429C364.011 149.095 337.384 142.935 325.824 126.203C315.917 111.968 319.529 94.486 321.903 78.3362C324.276 62.1865 324.276 43.6226 309.827 32.3012C299.61 24.2263 284.542 21.8954 270.299 20.4802C231.7 16.7341 192.378 17.5666 154.398 11.0734C140.361 8.65928 126.222 5.07969 113.115 0.0849304H0L0.619244 317.918H644.424V274.297V274.297Z" fill="#7FCCFF"/>
<path d="M434.501 219.353C400.753 195.545 366.488 196.211 325.721 187.886C315.194 185.722 304.564 182.309 296.927 176.149C274.84 158.251 282.271 127.783 283.819 105.39C284.955 88.4073 282.478 70.3429 268.648 56.7738C248.935 37.3775 216.219 30.1351 185.257 28.5534C151.714 26.8052 117.553 30.4681 84.4233 24.6408C63.1627 20.8948 42.5213 12.7366 27.6595 0.166489H0L0.516035 262.974C1.96093 263.141 3.40583 263.224 4.85073 263.391C32.6134 266.138 60.4793 273.38 81.5335 288.198C93.2991 296.522 102.175 306.762 108.264 318H475.268C477.642 281.288 468.56 243.495 434.501 219.353Z" fill="#7FCCFF"/>
<path d="M202.905 317.917C199.706 308.843 191.965 294.774 186.495 288.781C161.313 284.036 118.688 277.209 96.8082 288.364C85.765 294.025 76.1668 304.431 69.3551 317.917" fill="white"/>
<path opacity="0.5" d="M101.246 317.667C101.246 305.18 105.271 293.526 112.392 283.619C106.51 284.535 101.246 286.117 96.8082 288.364C85.765 294.025 76.1668 304.431 69.3551 317.917H101.349C101.246 317.834 101.246 317.75 101.246 317.667Z" fill="#7FCCFF"/>
<path d="M202.905 317.917C201.873 315.336 200.738 312.839 199.499 310.425C198.261 307.927 196.919 305.513 195.474 303.099C194.029 300.685 192.584 298.271 191.036 295.94C189.488 293.609 187.734 291.278 185.876 289.197L186.392 289.447C180.819 288.448 175.142 287.532 169.466 286.699C163.79 285.867 158.113 285.118 152.437 284.535C146.76 283.952 141.084 283.536 135.304 283.37C132.415 283.286 129.628 283.286 126.738 283.286C123.848 283.37 121.062 283.536 118.275 283.786C115.489 284.036 112.702 284.452 109.915 284.951C107.129 285.451 104.445 286.117 101.865 287.032C96.705 288.864 92.1638 291.611 88.1388 294.774C80.0886 301.268 74.1026 309.342 69.2519 317.75C71.2128 313.421 73.6898 309.176 76.5796 305.097C79.4694 301.018 82.8752 297.272 86.9003 293.859C88.8612 292.11 91.0286 290.529 93.4023 289.114C95.7761 287.698 98.2531 286.366 100.936 285.368C103.62 284.369 106.406 283.619 109.296 283.037C112.186 282.454 114.973 282.038 117.966 281.705C129.628 280.539 141.29 281.205 152.746 282.371C158.526 282.953 164.202 283.786 169.879 284.702C175.555 285.617 181.128 286.699 186.701 287.865L187.011 287.948L187.217 288.115C189.178 290.362 190.727 292.693 192.275 295.107C193.823 297.521 195.164 299.936 196.403 302.433C198.88 307.677 201.254 312.755 202.905 317.917Z" fill="#3DB9FF"/>
<path d="M124.468 275.295C116.417 281.289 106.716 294.275 109.709 313.255Z" fill="white"/>
<path d="M124.468 275.295C121.784 277.959 119.411 280.789 117.45 283.786C115.489 286.783 113.941 289.946 112.805 293.109C112.186 294.691 111.67 296.356 111.257 298.021C111.051 298.853 110.844 299.686 110.741 300.518C110.638 301.351 110.431 302.183 110.328 303.016C109.915 306.429 109.812 309.759 109.709 313.255C108.677 309.925 108.264 306.429 108.367 302.932C108.471 299.436 109.193 295.94 110.328 292.527C111.567 289.197 113.321 285.867 115.695 282.953C118.069 279.957 121.062 277.293 124.468 275.295Z" fill="#3DB9FF"/>
<path d="M160.9 152.757L165.544 177.397C203.731 171.237 256.263 173.568 262.868 163.995C271.022 152.507 216.115 144.265 160.9 152.757Z" fill="#0066CF"/>
<path d="M172.046 175.649L175.452 194.296C204.35 189.801 243.981 191.799 249.142 184.557C255.231 175.899 213.845 169.406 172.046 175.649Z" fill="#0066CF"/>
<path d="M160.9 152.757L166.163 177.314L165.441 176.898C174.11 175.399 182.78 174.484 191.552 173.651C200.325 172.819 209.097 172.236 217.767 171.653C226.539 170.987 235.209 170.405 243.878 169.323C248.11 168.74 252.444 167.991 256.366 166.742C258.327 166.076 260.185 165.327 261.32 164.161C261.836 163.579 262.352 162.913 262.455 162.247C262.559 161.581 262.455 160.915 262.043 160.332C261.217 159.083 259.462 158.001 257.708 157.169C255.953 156.336 253.992 155.67 251.928 155.087C247.903 153.922 243.672 153.09 239.44 152.424C230.874 151.092 222.205 150.426 213.432 150.176C204.659 149.926 195.887 150.009 187.218 150.509C178.342 150.842 169.569 151.674 160.9 152.757ZM160.9 152.757C178.032 149.76 195.68 148.345 213.329 148.594C222.101 148.677 230.977 149.26 239.75 150.509C244.085 151.175 248.419 151.924 252.651 153.173C254.818 153.756 256.882 154.505 258.843 155.42C260.804 156.336 262.868 157.502 264.107 159.333C264.726 160.249 265.036 161.414 264.829 162.496C264.623 163.579 264.003 164.494 263.178 165.41C262.765 165.826 262.249 166.159 261.836 166.492C261.32 166.742 260.907 167.075 260.391 167.325L258.843 167.991L257.295 168.573C253.064 169.905 248.626 170.654 244.291 171.237C235.518 172.403 226.746 172.902 217.973 173.485C200.428 174.65 182.883 175.316 165.647 177.897L164.925 177.98L164.822 177.481L160.9 152.757Z" fill="#004C9C"/>
<path d="M172.046 175.649L176.071 194.213L175.349 193.797C181.851 192.715 188.456 191.965 195.061 191.383C201.666 190.8 208.272 190.384 214.877 189.884C221.482 189.385 228.087 189.052 234.59 188.219C237.789 187.803 240.988 187.304 243.981 186.388C245.426 185.888 246.768 185.306 247.594 184.557C248.006 184.14 248.316 183.724 248.419 183.225C248.522 182.808 248.419 182.392 248.11 181.893C247.49 180.977 246.252 180.228 245.013 179.562C243.672 178.896 242.227 178.396 240.679 177.98C237.686 177.064 234.486 176.398 231.287 175.899C224.888 174.9 218.283 174.317 211.678 174.068C205.072 173.818 198.467 173.901 191.862 174.151C185.257 174.317 178.651 174.9 172.046 175.649ZM172.046 175.649C185.05 173.402 198.364 172.319 211.678 172.569C218.386 172.652 224.991 173.069 231.597 174.068C234.899 174.567 238.202 175.15 241.401 176.149C243.053 176.648 244.601 177.148 246.149 177.897C247.697 178.646 249.245 179.479 250.277 180.977C250.793 181.726 250.999 182.642 250.793 183.558C250.587 184.473 250.071 185.139 249.451 185.805C249.142 186.138 248.729 186.388 248.419 186.638C248.006 186.887 247.697 187.054 247.284 187.304L246.046 187.803L244.807 188.219C241.504 189.218 238.202 189.718 234.899 190.217C228.294 191.05 221.585 191.383 214.98 191.799C201.77 192.548 188.456 192.964 175.452 194.796L174.729 194.879L174.626 194.38L172.046 175.649Z" fill="#004C9C"/>
<path d="M142.632 135.441C148.308 144.432 153.675 151.841 158.732 160.915C177 152.34 219.418 143.183 219.418 143.183C219.418 143.183 266.996 138.022 270.918 132.694C278.143 123.121 241.814 116.128 193.1 123.038C177.31 125.202 159.661 130.447 142.632 135.441Z" fill="#0066CF"/>
<path d="M158.423 160.998C165.441 157.085 173.285 154.088 181.231 151.508C189.178 149.01 197.435 147.013 205.692 145.264C209.82 144.432 214.051 143.599 218.18 142.85C222.308 142.101 226.539 141.352 230.771 140.686C239.131 139.271 247.49 138.022 255.747 136.357C257.811 135.941 259.772 135.441 261.733 134.942C263.694 134.442 265.655 133.776 267.306 133.027C268.132 132.611 268.854 132.195 269.267 131.695C269.473 131.446 269.577 131.279 269.577 131.029C269.577 130.946 269.577 130.863 269.577 130.696C269.577 130.53 269.577 130.363 269.473 130.197C269.164 128.782 268.235 127.616 266.79 126.617C265.345 125.618 263.591 124.952 261.733 124.37C259.875 123.787 257.811 123.371 255.85 123.038C251.825 122.372 247.594 122.039 243.362 121.789C234.899 121.373 226.436 121.623 217.973 122.122C209.51 122.538 201.047 123.287 192.584 124.286H192.687C184.328 126.035 175.968 127.783 167.608 129.614C163.48 130.53 159.248 131.446 155.12 132.445C150.992 133.443 146.864 134.442 142.735 135.525C146.76 134.276 150.889 133.027 154.914 131.945C159.042 130.78 163.17 129.781 167.299 128.698C175.555 126.534 183.812 124.536 192.171 122.621H192.275C200.738 121.456 209.201 120.624 217.767 120.041C226.333 119.458 234.899 119.125 243.569 119.458C247.903 119.625 252.238 119.958 256.469 120.624C258.637 120.957 260.804 121.456 262.868 122.039C264.932 122.705 267.1 123.454 268.957 124.703C270.815 125.951 272.363 127.783 272.776 129.781C272.776 130.03 272.879 130.28 272.879 130.53C272.879 130.78 272.879 131.196 272.879 131.446C272.776 132.112 272.363 132.694 271.95 133.194C271.125 134.109 270.093 134.692 269.061 135.275C266.997 136.274 264.932 136.857 262.868 137.439C260.804 138.022 258.74 138.438 256.573 138.854C248.213 140.519 239.75 141.768 231.39 143.017C227.159 143.683 223.03 144.349 218.799 145.015C214.671 145.681 210.439 146.43 206.311 147.179C198.054 148.761 189.798 150.509 181.748 152.673C173.697 154.838 165.75 157.502 158.423 160.998Z" fill="#004C9C"/>
<path d="M239.131 125.036C223.443 120.707 169.569 163.329 169.569 163.329L159.042 141.602C159.971 135.358 162.448 129.198 166.37 123.787C184.947 121.123 226.952 114.13 225.198 106.388C222.824 96.066 173.388 96.399 151.921 99.8953C151.921 99.8953 108.161 126.118 103.207 134.193C100.317 138.938 107.438 204.702 110.638 239.083C110.638 239.083 102.691 272.464 96.8082 288.281C96.8082 288.281 137.781 299.852 189.798 289.863C189.798 289.863 181.851 252.652 185.979 222.767C185.979 222.767 233.351 170.155 242.743 138.938C244.188 134.109 245.117 126.701 239.131 125.036Z" fill="#00ADFF"/>
<g opacity="0.5">
<g opacity="0.5">
<path opacity="0.5" d="M107.438 290.612C118.378 268.718 135.82 239.582 135.82 239.582C135.82 239.582 113.218 203.703 116.83 122.621C110.225 127.367 104.858 131.695 103.31 134.193C100.42 138.938 107.542 204.702 110.741 239.083C110.741 239.083 102.794 272.464 96.9114 288.281C96.705 288.364 100.317 290.113 107.438 290.612Z" fill="#0066CF"/>
</g>
</g>
<path d="M148.824 126.701C155.327 125.868 161.829 124.786 168.331 123.62C174.833 122.455 181.232 121.206 187.63 119.874C194.029 118.459 200.325 116.961 206.62 115.213C209.717 114.297 212.813 113.381 215.806 112.299C217.251 111.716 218.799 111.133 220.141 110.468C221.482 109.802 222.824 109.052 223.753 108.137C224.166 107.637 224.475 107.138 224.372 106.721C224.269 106.222 223.959 105.639 223.65 105.14C222.824 104.141 221.585 103.392 220.141 102.809C217.354 101.56 214.155 100.894 210.955 100.312C204.556 99.2293 197.951 98.8131 191.346 98.6466C184.741 98.4801 178.135 98.6466 171.633 98.9796C165.028 99.3126 158.526 99.8953 152.127 100.894L152.54 100.728C146.038 104.64 139.639 108.719 133.24 112.798C126.945 116.877 120.649 121.04 114.663 125.452C111.67 127.699 108.78 129.947 106.2 132.361C105.581 132.944 104.962 133.61 104.549 134.193C104.445 134.359 104.342 134.526 104.239 134.692C104.239 134.775 104.239 134.775 104.136 134.859L104.033 135.108C103.929 135.441 103.929 135.774 103.826 136.191C103.62 137.772 103.62 139.354 103.62 141.019C103.723 147.512 104.136 154.088 104.549 160.665C105.478 173.735 106.613 186.887 107.851 199.957C109.09 213.027 110.328 226.096 111.257 239.249V239.332V239.416L97.1178 288.531L96.705 287.865C100.214 288.947 103.826 289.696 107.438 290.446C111.051 291.195 114.766 291.777 118.482 292.277C125.913 293.276 133.447 293.775 140.981 293.942C148.515 294.108 156.049 293.859 163.583 293.276C171.117 292.693 178.548 291.777 185.979 290.529C178.651 291.944 171.117 292.943 163.583 293.692C156.049 294.358 148.515 294.691 140.878 294.608C133.343 294.525 125.706 294.025 118.172 293.193C114.457 292.776 110.638 292.194 106.922 291.528C103.207 290.862 99.5948 290.029 95.8793 289.03L95.3633 288.864L95.4665 288.364L109.09 239.083V239.332C108.574 232.756 107.851 226.263 107.232 219.686L105.271 200.04C104.033 186.971 102.794 173.818 101.762 160.748C101.246 154.172 100.833 147.595 100.73 141.019C100.73 139.354 100.73 137.689 100.936 136.024C101.04 135.608 101.04 135.192 101.143 134.692C101.143 134.526 101.246 134.442 101.246 134.276C101.349 134.109 101.349 133.943 101.452 133.86C101.556 133.693 101.762 133.443 101.865 133.277C102.485 132.528 103.104 131.862 103.723 131.196C106.406 128.615 109.399 126.368 112.392 124.12C118.482 119.708 124.777 115.546 131.176 111.383C137.575 107.304 143.974 103.308 150.579 99.3958L150.785 99.3126H150.992C157.597 98.2304 164.202 97.7309 170.911 97.3979C177.516 97.0649 184.224 96.9817 190.83 97.2314C197.435 97.4811 204.143 97.9806 210.749 99.1461C214.051 99.7288 217.251 100.478 220.347 101.893C221.895 102.559 223.34 103.475 224.372 104.724C224.888 105.39 225.198 106.055 225.404 106.888C225.507 107.804 224.991 108.553 224.372 109.136C223.237 110.301 221.689 111.05 220.244 111.716C218.799 112.382 217.251 112.965 215.703 113.548C212.606 114.63 209.51 115.546 206.311 116.461C200.015 118.126 193.616 119.541 187.114 120.873C180.715 122.122 174.213 123.287 167.711 124.37C161.932 125.119 155.43 126.035 148.824 126.701Z" fill="#0066CF"/>
<path d="M169.569 163.412C168.124 161.747 166.989 159.916 165.957 158.084C164.925 156.253 163.893 154.421 162.964 152.59C162.035 150.759 161.209 148.844 160.487 146.929C159.764 145.015 159.145 143.1 158.732 141.019C160.177 142.684 161.313 144.515 162.345 146.263C163.377 148.095 164.409 149.926 165.338 151.758C166.266 153.589 167.092 155.504 167.815 157.418C168.537 159.416 169.156 161.331 169.569 163.412Z" fill="#0066CF"/>
<path d="M165.647 124.286C165.028 127.699 163.79 131.113 162.551 134.359C161.209 137.689 159.661 140.852 158.01 144.099C156.255 147.262 154.398 150.426 152.334 153.423C150.166 156.419 147.896 159.416 144.903 161.914C147.07 158.917 148.824 155.837 150.579 152.673C151.405 151.092 152.334 149.593 153.159 148.012C153.985 146.43 154.914 144.848 155.739 143.266C157.494 140.103 159.042 136.94 160.797 133.776L165.647 124.286Z" fill="#0066CF"/>
<path d="M143.251 245.326C146.657 243.412 150.063 241.58 153.469 239.665C156.875 237.834 160.177 235.919 163.583 234.005C166.886 232.09 170.188 230.175 173.491 228.261C176.794 226.346 180.096 224.348 183.502 222.434C180.819 225.014 177.929 227.345 174.833 229.593C171.736 231.84 168.434 233.838 165.131 235.836C161.725 237.751 158.216 239.582 154.604 241.164C150.889 242.746 147.173 244.161 143.251 245.326Z" fill="#0066CF"/>
<path d="M155.739 252.985C157.804 251.07 159.868 249.156 161.932 247.324C163.996 245.409 166.06 243.578 168.124 241.663C170.188 239.749 172.149 237.834 174.213 235.919C176.174 234.005 178.238 232.09 180.303 230.175C179.064 232.506 177.516 234.754 175.865 236.918C174.11 239.083 172.252 241.081 170.188 242.995C168.124 244.91 165.854 246.741 163.48 248.406C161.003 250.154 158.423 251.653 155.739 252.985Z" fill="#0066CF"/>
<path d="M270.402 171.071C264.107 176.149 253.992 176.065 247.8 171.071L149.96 92.0702C149.444 91.6539 149.444 91.0712 149.96 90.655L170.808 73.8393C171.324 73.423 172.046 73.423 172.562 73.8393L270.402 152.84C276.698 157.918 276.698 166.076 270.402 171.071Z" fill="#0066CF"/>
<path d="M268.338 169.406C263.694 173.152 256.057 173.152 251.412 169.406L152.643 89.5728C152.334 89.323 152.334 88.8236 152.643 88.5738L168.331 75.9204C168.64 75.6707 169.259 75.6707 169.569 75.9204L268.338 155.753C272.982 159.499 272.982 165.66 268.338 169.406Z" fill="#00ADFF"/>
<path d="M266.274 167.741C262.455 170.821 256.263 170.821 252.548 167.741L154.088 88.2408C153.778 87.9911 153.778 87.5749 154.088 87.4084L166.782 77.1691C167.092 76.9194 167.608 76.9194 167.815 77.1691L266.171 156.669C270.093 159.666 270.093 164.661 266.274 167.741Z" fill="#FF2136"/>
<g opacity="0.3">
<path opacity="0.3" d="M179.477 93.1523L161.829 78.834L156.462 83.1628L174.11 97.4812C175.349 98.4801 177.619 98.3136 179.064 97.1482C180.509 95.9827 180.715 94.1513 179.477 93.1523Z" fill="white"/>
<path opacity="0.3" d="M236.138 148.344L256.366 164.661C257.811 165.826 260.288 165.826 262.043 164.577C264.107 163.162 264.416 160.831 262.868 159.583L242.536 143.1C241.092 141.935 238.408 142.101 236.654 143.516C234.899 145.015 234.59 147.179 236.138 148.344Z" fill="white"/>
</g>
<path d="M229.223 145.348L183.296 108.22C180.715 106.139 180.715 102.726 183.296 100.645C185.876 98.5634 190.107 98.5634 192.687 100.645L238.615 137.772C241.195 139.853 241.195 143.267 238.615 145.348C235.931 147.429 231.803 147.429 229.223 145.348Z" fill="white"/>
<path d="M192.392 108.934C191.587 109.446 190.764 109.679 189.922 109.633C189.087 109.587 188.299 109.265 187.557 108.666C186.754 108.016 186.397 107.263 186.488 106.406C186.583 105.551 187.113 104.734 188.08 103.955L188.735 103.428C189.368 102.918 190.037 102.56 190.742 102.355C191.45 102.152 192.139 102.114 192.809 102.243C193.482 102.369 194.091 102.653 194.636 103.093C195.359 103.677 195.736 104.309 195.766 104.988C195.8 105.664 195.496 106.319 194.853 106.952L193.951 106.223C194.416 105.723 194.639 105.269 194.621 104.862C194.606 104.457 194.364 104.066 193.897 103.689C193.324 103.225 192.662 103.033 191.91 103.11C191.162 103.19 190.397 103.545 189.614 104.175L188.954 104.707C188.215 105.302 187.781 105.9 187.653 106.501C187.524 107.102 187.737 107.626 188.292 108.074C188.79 108.477 189.284 108.695 189.774 108.728C190.269 108.761 190.841 108.587 191.49 108.205L192.392 108.934ZM199.879 113.33C199.211 113.867 198.516 114.246 197.793 114.467C197.072 114.685 196.376 114.734 195.702 114.612C195.029 114.491 194.418 114.209 193.87 113.766C193.334 113.333 192.99 112.844 192.838 112.298C192.689 111.75 192.742 111.187 192.998 110.609C193.261 110.031 193.71 109.48 194.346 108.958L194.838 108.562C195.493 108.035 196.185 107.661 196.915 107.44C197.644 107.219 198.349 107.17 199.028 107.291C199.714 107.412 200.325 107.689 200.861 108.122C201.406 108.563 201.753 109.057 201.902 109.605C202.057 110.154 201.996 110.72 201.718 111.306C201.444 111.889 200.974 112.448 200.309 112.983L199.879 113.33ZM199.426 112.255C200.234 111.604 200.691 110.975 200.798 110.366C200.908 109.755 200.671 109.215 200.089 108.744C199.522 108.286 198.858 108.099 198.097 108.184C197.343 108.269 196.577 108.616 195.8 109.227L195.3 109.63C194.517 110.26 194.064 110.889 193.942 111.515C193.826 112.141 194.057 112.686 194.633 113.152C195.212 113.62 195.871 113.813 196.61 113.731C197.352 113.646 198.122 113.289 198.921 112.661L199.426 112.255ZM201.381 117.759L208.944 114.805L209.926 115.597L200.59 119.044L199.795 118.403L204.089 110.882L205.066 111.671L201.381 117.759ZM204.991 122.601L204.094 121.876L210.907 116.39L211.804 117.115L204.991 122.601ZM206.636 123.93L213.449 118.444L215.369 119.996C215.961 120.474 216.354 121.002 216.546 121.581C216.739 122.159 216.717 122.743 216.479 123.331C216.245 123.921 215.816 124.47 215.192 124.978L214.757 125.328C214.115 125.846 213.427 126.198 212.694 126.386C211.965 126.577 211.24 126.59 210.52 126.426C209.803 126.264 209.136 125.94 208.519 125.451L206.636 123.93ZM213.607 119.764L208.268 124.063L209.212 124.826C209.903 125.384 210.656 125.645 211.47 125.608C212.286 125.574 213.093 125.236 213.888 124.596L214.286 124.276C215.059 123.653 215.478 123.022 215.54 122.383C215.61 121.745 215.314 121.154 214.653 120.61L213.607 119.764Z" fill="#003E82"/>
<path d="M147.586 96.2325L133.859 85.244C132.621 84.245 132.621 82.5801 133.859 81.5812L159.455 60.9361C160.693 59.9372 162.757 59.9372 163.996 60.9361L177.722 71.9246C178.961 72.9236 178.961 74.5885 177.722 75.5874L152.127 96.2325C150.785 97.2314 148.824 97.2314 147.586 96.2325Z" fill="#004C9C"/>
<path d="M174.936 74.5885C174.626 74.5885 174.317 74.5052 174.007 74.2555L161.003 63.7665C160.487 63.3503 160.487 62.6843 161.003 62.2681C161.519 61.8518 162.345 61.8518 162.861 62.2681L175.865 72.7571C176.381 73.1733 176.381 73.8393 175.865 74.2555C175.658 74.5052 175.349 74.5885 174.936 74.5885Z" fill="#0066CF"/>
<path d="M172.459 76.5864C172.149 76.5864 171.84 76.5031 171.53 76.2534L158.526 65.7644C158.01 65.3482 158.01 64.6822 158.526 64.266C159.042 63.8497 159.868 63.8497 160.384 64.266L173.388 74.755C173.904 75.1712 173.904 75.8372 173.388 76.2534C173.078 76.5031 172.769 76.5864 172.459 76.5864Z" fill="#0066CF"/>
<path d="M169.879 78.6676C169.569 78.6676 169.259 78.5843 168.95 78.3346L155.946 67.8456C155.43 67.4293 155.43 66.7634 155.946 66.3471C156.462 65.9309 157.287 65.9309 157.804 66.3471L170.808 76.8361C171.324 77.2524 171.324 77.9183 170.808 78.3346C170.601 78.5843 170.188 78.6676 169.879 78.6676Z" fill="#0066CF"/>
<path d="M167.299 80.7487C166.989 80.7487 166.679 80.6655 166.37 80.4157L153.469 69.9267C152.953 69.5105 152.953 68.8445 153.469 68.4283C153.985 68.012 154.811 68.012 155.327 68.4283L168.331 78.9173C168.847 79.3335 168.847 79.9995 168.331 80.4157C168.021 80.6655 167.711 80.7487 167.299 80.7487Z" fill="#0066CF"/>
<path d="M164.822 82.7466C164.512 82.7466 164.202 82.6634 163.893 82.4136L150.889 72.0079C150.373 71.5916 150.373 70.9257 150.889 70.5094C151.405 70.0932 152.23 70.0932 152.746 70.5094L165.75 80.9984C166.266 81.4147 166.266 82.0806 165.75 82.4969C165.441 82.6634 165.131 82.7466 164.822 82.7466Z" fill="#0066CF"/>
<path d="M162.241 84.8277C161.932 84.8277 161.622 84.7445 161.313 84.4948L148.412 74.089C147.896 73.6728 147.896 73.0068 148.412 72.5906C148.928 72.1743 149.753 72.1743 150.269 72.5906L163.273 83.0796C163.79 83.4958 163.79 84.1618 163.273 84.578C162.964 84.7445 162.551 84.8277 162.241 84.8277Z" fill="#0066CF"/>
<path d="M159.764 86.9089C159.455 86.9089 159.145 86.8256 158.836 86.5759L145.831 76.0869C145.315 75.6707 145.315 75.0047 145.831 74.5885C146.348 74.1722 147.173 74.1722 147.689 74.5885L160.693 85.0775C161.209 85.4937 161.209 86.1597 160.693 86.5759C160.384 86.8256 160.074 86.9089 159.764 86.9089Z" fill="#0066CF"/>
<path d="M157.184 88.9068C156.875 88.9068 156.565 88.8236 156.255 88.5738L143.251 78.0848C142.735 77.6686 142.735 77.0026 143.251 76.5864C143.767 76.1702 144.593 76.1702 145.109 76.5864L158.113 87.0754C158.629 87.4916 158.629 88.1576 158.113 88.5738C157.804 88.8236 157.494 88.9068 157.184 88.9068Z" fill="#0066CF"/>
<path d="M154.604 90.988C154.294 90.988 153.985 90.9047 153.675 90.655L140.671 80.166C140.155 79.7497 140.155 79.0838 140.671 78.6675C141.187 78.2513 142.013 78.2513 142.529 78.6675L155.533 89.1565C156.049 89.5728 156.049 90.2387 155.533 90.655C155.327 90.9047 154.914 90.988 154.604 90.988Z" fill="#0066CF"/>
<path d="M152.127 93.0691C151.818 93.0691 151.508 92.9859 151.198 92.7361L138.194 82.2471C137.678 81.8309 137.678 81.1649 138.194 80.7487C138.71 80.3325 139.536 80.3325 140.052 80.7487L153.056 91.2377C153.572 91.6539 153.572 92.3199 153.056 92.7361C152.746 92.9859 152.437 93.0691 152.127 93.0691Z" fill="#0066CF"/>
<path d="M149.547 95.067C149.237 95.067 148.928 94.9838 148.618 94.734L135.614 84.245C135.098 83.8288 135.098 83.1628 135.614 82.7466C136.13 82.3304 136.956 82.3304 137.472 82.7466L150.476 93.2356C150.992 93.6518 150.992 94.3178 150.476 94.734C150.166 94.9838 149.857 95.067 149.547 95.067Z" fill="#0066CF"/>
<path d="M239.131 125.036C226.333 121.539 188.25 149.094 174.523 159.499L203.937 201.456C218.386 183.308 237.17 157.502 242.743 139.021C244.188 134.109 245.117 126.701 239.131 125.036Z" fill="#00ADFF"/>
<path d="M189.694 290.029C188.146 284.535 186.908 278.958 185.979 273.38C185.05 267.803 184.328 262.225 183.812 256.564C183.399 250.904 183.192 245.326 183.296 239.665C183.399 234.005 183.812 228.344 184.844 222.766V222.6L184.947 222.434C197.022 208.531 208.581 194.213 219.005 179.395C224.166 171.986 229.12 164.494 233.454 156.752C235.622 152.923 237.583 148.927 239.234 144.931C240.885 140.936 242.433 136.857 242.536 132.777C242.536 130.78 242.227 128.698 240.885 127.283C240.163 126.617 239.337 126.118 238.202 125.868C237.066 125.618 235.828 125.535 234.693 125.535C232.216 125.618 229.842 126.284 227.468 127.117C225.094 127.949 222.824 128.948 220.657 130.114C216.219 132.361 212.09 134.942 207.859 137.523C203.627 140.02 199.499 142.684 195.371 145.348C191.243 148.012 187.321 150.842 183.296 153.589C179.374 156.419 175.349 159.25 171.53 162.163C163.996 168.074 156.668 174.234 149.341 180.394C156.359 174.068 163.583 167.741 171.014 161.664C178.548 155.67 186.289 149.843 194.339 144.349C198.364 141.602 202.492 138.938 206.724 136.357C210.852 133.776 214.98 131.029 219.521 128.698C221.792 127.533 224.062 126.451 226.539 125.535C229.016 124.619 231.7 123.953 234.486 123.787C235.931 123.704 237.376 123.787 238.821 124.12C240.266 124.37 241.711 125.119 242.64 126.118C243.569 127.117 244.085 128.282 244.394 129.364C244.704 130.53 244.807 131.612 244.704 132.777C244.601 135.025 244.188 137.19 243.569 139.271L242.536 142.434L241.401 145.514C239.75 149.593 237.686 153.589 235.622 157.502C233.454 161.414 231.184 165.243 228.707 169.073C226.23 172.902 223.65 176.648 221.069 180.311C215.806 187.72 210.233 194.962 204.453 202.121C201.563 205.701 198.673 209.281 195.68 212.777C192.687 216.273 189.694 219.77 186.495 223.266L186.701 222.933C185.566 228.427 185.05 234.005 184.844 239.582C184.637 245.16 184.741 250.82 185.05 256.398C185.36 261.975 185.876 267.636 186.598 273.214C187.527 278.874 188.456 284.452 189.694 290.029Z" fill="#0066CF"/>
<path d="M79.9855 176.731C82.3224 176.731 84.2169 175.203 84.2169 173.318C84.2169 171.433 82.3224 169.905 79.9855 169.905C77.6485 169.905 75.754 171.433 75.754 173.318C75.754 175.203 77.6485 176.731 79.9855 176.731Z" fill="#0066CF"/>
<path d="M62.5435 258.895C64.8805 258.895 66.775 257.367 66.775 255.482C66.775 253.597 64.8805 252.069 62.5435 252.069C60.2065 252.069 58.312 253.597 58.312 255.482C58.312 257.367 60.2065 258.895 62.5435 258.895Z" fill="#0066CF"/>
<path d="M339.345 204.785C341.682 204.785 343.576 203.257 343.576 201.372C343.576 199.487 341.682 197.959 339.345 197.959C337.008 197.959 335.113 199.487 335.113 201.372C335.113 203.257 337.008 204.785 339.345 204.785Z" fill="#0066CF"/>
<path d="M130.041 61.1859C132.549 61.1859 134.582 59.546 134.582 57.523C134.582 55.5001 132.549 53.8602 130.041 53.8602C127.533 53.8602 125.5 55.5001 125.5 57.523C125.5 59.546 127.533 61.1859 130.041 61.1859Z" fill="white"/>
<path d="M305.08 167.824C309.184 167.824 312.511 165.141 312.511 161.83C312.511 158.52 309.184 155.837 305.08 155.837C300.976 155.837 297.649 158.52 297.649 161.83C297.649 165.141 300.976 167.824 305.08 167.824Z" fill="#7FCCFF"/>
<path d="M32.2006 144.931C30.9621 144.931 30.0333 144.099 30.0333 143.1C30.0333 142.101 31.0653 141.352 32.3038 141.352C33.5423 141.352 34.4712 142.184 34.4712 143.183C34.4712 144.182 33.4391 144.931 32.2006 144.931Z" fill="#0066CF"/>
<path d="M252.135 103.808C250.896 103.808 249.967 102.975 249.967 101.976C249.967 100.977 250.999 100.228 252.238 100.228C253.476 100.228 254.405 101.061 254.405 102.06C254.405 103.059 253.373 103.891 252.135 103.808Z" fill="#0066CF"/>
<path d="M49.0233 223.099C55.1793 223.099 60.1697 219.074 60.1697 214.109C60.1697 209.144 55.1793 205.118 49.0233 205.118C42.8674 205.118 37.877 209.144 37.877 214.109C37.877 219.074 42.8674 223.099 49.0233 223.099Z" fill="#D1ECFF"/>
<path d="M34.7808 213.443H31.9942V214.692H34.7808L39.1154 216.357V211.778L34.7808 213.443Z" fill="#D1ECFF"/>
<path d="M29.5172 211.863C31.0653 211.863 32.3038 212.862 32.3038 214.111C32.3038 215.359 31.0653 216.358 29.5172 216.358C27.9691 216.358 26.7306 215.359 26.7306 214.111C26.8338 212.862 27.9691 211.863 29.5172 211.863Z" fill="#D1ECFF"/>
<path d="M63.3691 213.443L58.9312 211.778V216.357L63.3691 214.692H66.0525V213.443H63.3691Z" fill="#D1ECFF"/>
<path d="M68.5295 216.273C66.9814 216.273 65.7429 215.274 65.7429 214.026C65.7429 212.777 66.9814 211.778 68.5295 211.778C70.0776 211.778 71.3161 212.777 71.3161 214.026C71.3161 215.274 70.0776 216.273 68.5295 216.273Z" fill="#D1ECFF"/>
<path d="M49.0233 220.519C53.4123 220.519 56.9703 217.649 56.9703 214.109C56.9703 210.569 53.4123 207.699 49.0233 207.699C44.6344 207.699 41.0764 210.569 41.0764 214.109C41.0764 217.649 44.6344 220.519 49.0233 220.519Z" fill="#D1ECFF"/>
<path d="M49.7458 202.538V200.373H48.3009V202.538L46.2367 206.034H51.9131L49.7458 202.538Z" fill="#D1ECFF"/>
<path d="M51.8099 198.375C51.8099 199.624 50.5714 200.623 49.0233 200.623C47.4752 200.623 46.2367 199.624 46.2367 198.375C46.2367 197.127 47.4752 196.128 49.0233 196.128C50.5714 196.128 51.8099 197.127 51.8099 198.375Z" fill="#D1ECFF"/>
<path d="M46.2367 222.101L48.3009 225.597V227.845H49.7458V225.597L51.9131 222.101H46.2367Z" fill="#D1ECFF"/>
<path d="M49.0233 232.09C50.5623 232.09 51.8099 231.084 51.8099 229.842C51.8099 228.601 50.5623 227.595 49.0233 227.595C47.4843 227.595 46.2367 228.601 46.2367 229.842C46.2367 231.084 47.4843 232.09 49.0233 232.09Z" fill="#D1ECFF"/>
<path d="M39.7347 205.868L38.0834 204.536L37.1545 205.202L38.8059 206.534L40.1475 209.614L43.5534 206.95L39.7347 205.868Z" fill="#D1ECFF"/>
<path d="M36.1225 205.535C37.3764 205.535 38.393 204.715 38.393 203.703C38.393 202.692 37.3764 201.872 36.1225 201.872C34.8685 201.872 33.8519 202.692 33.8519 203.703C33.8519 204.715 34.8685 205.535 36.1225 205.535Z" fill="#D1ECFF"/>
<path d="M60.8921 222.933L59.2408 221.601L57.8991 218.521L54.4933 221.268L58.3119 222.35L59.9633 223.599L60.8921 222.933Z" fill="#D1ECFF"/>
<path d="M61.9242 226.263C63.1782 226.263 64.1947 225.443 64.1947 224.431C64.1947 223.42 63.1782 222.6 61.9242 222.6C60.6702 222.6 59.6536 223.42 59.6536 224.431C59.6536 225.443 60.6702 226.263 61.9242 226.263Z" fill="#D1ECFF"/>
<path d="M60.8921 205.202L59.9633 204.536L58.3119 205.868L54.4933 206.95L57.8991 209.614L59.2408 206.534L60.8921 205.202Z" fill="#D1ECFF"/>
<path d="M61.9242 205.535C63.1782 205.535 64.1947 204.715 64.1947 203.703C64.1947 202.692 63.1782 201.872 61.9242 201.872C60.6702 201.872 59.6536 202.692 59.6536 203.703C59.6536 204.715 60.6702 205.535 61.9242 205.535Z" fill="#D1ECFF"/>
<path d="M43.5534 221.268L40.1475 218.521L38.8059 221.601L37.1545 222.933L38.0834 223.599L39.7347 222.35L43.5534 221.268Z" fill="#D1ECFF"/>
<path d="M36.1225 226.263C37.3764 226.263 38.393 225.443 38.393 224.431C38.393 223.42 37.3764 222.6 36.1225 222.6C34.8685 222.6 33.8519 223.42 33.8519 224.431C33.8519 225.443 34.8685 226.263 36.1225 226.263Z" fill="#D1ECFF"/>
<path d="M65.33 95.6497C73.481 95.6497 80.0886 90.32 80.0886 83.7455C80.0886 77.171 73.481 71.8413 65.33 71.8413C57.1791 71.8413 50.5714 77.171 50.5714 83.7455C50.5714 90.32 57.1791 95.6497 65.33 95.6497Z" fill="#0066CF"/>
<path d="M46.6496 81.8309L43.0373 81.5811L42.8309 83.246L46.4432 83.4125L52.0163 85.9932L52.5324 79.9162L46.6496 81.8309Z" fill="#0066CF"/>
<path d="M40.7668 78.6675C43.2437 78.834 44.9983 80.4989 44.8951 82.4968C44.6886 84.4947 42.6245 85.9099 40.1475 85.8267C37.6706 85.6602 35.916 83.9953 36.0192 81.9973C36.2257 79.9994 38.393 78.5843 40.7668 78.6675Z" fill="#0066CF"/>
<path d="M84.2169 84.0785L78.6437 81.4979L78.1277 87.5748L84.1137 85.7434L87.7259 85.9099L87.8291 84.3282L84.2169 84.0785Z" fill="#0066CF"/>
<path d="M91.0286 88.2408C93.0236 88.2408 94.6408 86.9363 94.6408 85.3272C94.6408 83.7181 93.0236 82.4136 91.0286 82.4136C89.0336 82.4136 87.4163 83.7181 87.4163 85.3272C87.4163 86.9363 89.0336 88.2408 91.0286 88.2408Z" fill="#0066CF"/>
<path d="M65.33 92.1534C71.087 92.1534 75.7539 88.3891 75.7539 83.7455C75.7539 79.102 71.087 75.3377 65.33 75.3377C59.5731 75.3377 54.9061 79.102 54.9061 83.7455C54.9061 88.3891 59.5731 92.1534 65.33 92.1534Z" fill="#00ADFF"/>
<path d="M63.5755 89.0733C65.7985 89.0733 67.6006 87.6197 67.6006 85.8267C67.6006 84.0336 65.7985 82.5801 63.5755 82.5801C61.3525 82.5801 59.5504 84.0336 59.5504 85.8267C59.5504 87.6197 61.3525 89.0733 63.5755 89.0733Z" fill="#0066CF"/>
<path d="M69.3551 78.0015C68.4262 77.2523 66.9813 77.2523 66.0525 78.0015C65.1236 78.7508 65.1236 79.9162 66.0525 80.6654C66.9813 81.4146 68.4262 81.4146 69.3551 80.6654C70.1808 79.9994 70.1808 78.7508 69.3551 78.0015Z" fill="#0066CF"/>
<path d="M64.5044 68.5115L64.1948 65.5979L62.1306 65.7644L62.5435 68.678L60.3761 73.5895L67.9102 72.9235L64.5044 68.5115Z" fill="#0066CF"/>
<path d="M67.4974 61.6853C67.807 63.8497 65.8461 65.7644 63.1627 66.0141C60.4793 66.2639 58.1056 64.6822 57.7959 62.5178C57.4863 60.3534 59.4472 58.4387 62.1306 58.189C64.9172 57.9392 67.291 59.5209 67.4974 61.6853Z" fill="#0066CF"/>
<path d="M63.0595 94.5675L66.3621 98.9795L66.7749 101.893L68.7359 101.727L68.4262 98.813L70.5936 93.9848L63.0595 94.5675Z" fill="#0066CF"/>
<path d="M64.5044 104.724C64.298 103.142 65.7429 101.643 67.7038 101.477C69.6647 101.31 71.5225 102.476 71.7289 104.058C71.9353 105.639 70.4904 107.138 68.5294 107.304C66.4653 107.471 64.7108 106.305 64.5044 104.724Z" fill="#0066CF"/>
<path d="M51.8099 73.9225L49.4362 72.3408L48.3009 73.423L50.6747 75.0047L52.9452 78.9173L56.9703 75.0047L51.8099 73.9225Z" fill="#0066CF"/>
<path d="M48.7137 69.5937C50.0554 70.4262 50.1586 72.0078 49.1266 73.09C48.0945 74.1722 46.1335 74.2555 44.7919 73.423C43.4502 72.5905 43.347 71.0089 44.379 69.9267C45.5143 68.8445 47.372 68.7612 48.7137 69.5937Z" fill="#0066CF"/>
<path d="M82.256 94.2345L79.8822 92.6529L77.6117 88.7403L73.6898 92.6529L78.8502 93.7351L81.2239 95.2335L82.256 94.2345Z" fill="#0066CF"/>
<path d="M81.2239 98.4801C79.4694 97.3146 79.1598 95.1502 80.7079 93.7351C82.1528 92.3199 84.8362 92.0701 86.5907 93.3188C88.3452 94.4843 88.6548 96.6487 87.1067 98.0638C85.6618 99.479 83.0817 99.6455 81.2239 98.4801Z" fill="#0066CF"/>
<path d="M80.9143 72.0078L79.6758 71.0921L77.6117 72.8403L72.5545 74.2555L76.9924 77.8351L78.747 73.756L80.9143 72.0078Z" fill="#0066CF"/>
<path d="M84.4233 71.7581C83.2881 72.757 81.3271 72.757 80.0886 71.7581C78.8501 70.8424 78.8501 69.2607 80.0886 68.2618C81.2239 67.2628 83.1848 67.2628 84.4233 68.2618C85.5586 69.1775 85.5586 70.7591 84.4233 71.7581Z" fill="#0066CF"/>
<path d="M58.1056 93.2356L53.6677 89.656L51.9131 93.7351L49.7458 95.4832L50.9843 96.4822L53.1516 94.734L58.1056 93.2356Z" fill="#0066CF"/>
<path d="M46.2367 95.8162C47.372 94.8173 49.333 94.8173 50.5714 95.8162C51.8099 96.7319 51.8099 98.3136 50.5714 99.3125C49.4362 100.311 47.4752 100.311 46.2367 99.3125C45.1015 98.3136 45.1015 96.8152 46.2367 95.8162Z" fill="#0066CF"/>
<path d="M65.33 120.54C40.1475 120.54 19.7126 104.058 19.7126 83.7455C19.7126 63.4335 40.1475 46.9508 65.33 46.9508C90.5125 46.9508 110.948 63.4335 110.948 83.7455C110.948 104.058 90.5125 120.54 65.33 120.54ZM65.33 47.7C40.6636 47.7 20.6414 63.8497 20.6414 83.7455C20.6414 103.641 40.6636 119.791 65.33 119.791C89.9965 119.791 110.019 103.641 110.019 83.7455C110.019 63.8497 89.9965 47.7 65.33 47.7Z" fill="white"/>
<path d="M279.794 273.463C292.961 273.463 303.635 264.854 303.635 254.234C303.635 243.613 292.961 235.004 279.794 235.004C266.627 235.004 255.953 243.613 255.953 254.234C255.953 264.854 266.627 273.463 279.794 273.463Z" fill="#0066CF"/>
<path d="M257.2 231.234L254.781 232.923L260.319 238.084L262.739 236.395L257.2 231.234Z" fill="#0066CF"/>
<path d="M270.506 238.167L261.32 244.577L258.637 236.502L261.011 234.837L270.506 238.167Z" fill="#0066CF"/>
<path d="M258.327 226.013C260.701 228.261 260.391 231.674 257.605 233.588C254.818 235.503 250.587 235.253 248.213 233.006C245.839 230.758 246.149 227.345 248.935 225.43C251.722 223.516 255.85 223.765 258.327 226.013Z" fill="#0066CF"/>
<path d="M302.377 277.298L304.796 275.609L299.257 270.448L296.838 272.136L302.377 277.298Z" fill="#0066CF"/>
<path d="M288.98 270.383L298.165 263.973L300.952 271.965L298.475 273.713L288.98 270.383Z" fill="#0066CF"/>
<path d="M312.866 279.854C313.031 277.237 310.535 275.007 307.291 274.874C304.046 274.74 301.281 276.753 301.115 279.371C300.95 281.988 303.446 284.218 306.691 284.351C309.935 284.485 312.7 282.472 312.866 279.854Z" fill="#0066CF"/>
<path d="M279.794 267.886C289.142 267.886 296.72 261.773 296.72 254.234C296.72 246.694 289.142 240.581 279.794 240.581C270.446 240.581 262.868 246.694 262.868 254.234C262.868 261.773 270.446 267.886 279.794 267.886Z" fill="#00ADFF"/>
<path d="M275.047 244.244C272.57 244.244 270.506 245.909 270.506 247.907C270.506 249.905 272.57 251.57 275.047 251.57C277.524 251.57 279.588 249.905 279.588 247.907C279.588 245.909 277.524 244.244 275.047 244.244Z" fill="#0066CF"/>
<path d="M275.047 256.897C272.57 256.897 270.506 258.562 270.506 260.56C270.506 262.558 272.57 264.223 275.047 264.223C277.524 264.223 279.588 262.558 279.588 260.56C279.588 258.562 277.524 256.897 275.047 256.897Z" fill="#0066CF"/>
<path d="M285.78 249.322C282.374 249.322 279.691 251.57 279.691 254.234C279.691 256.897 282.478 259.145 285.78 259.145C289.186 259.145 291.869 256.897 291.869 254.234C291.869 251.57 289.186 249.322 285.78 249.322Z" fill="#0066CF"/>
<path d="M304.362 232.564L301.908 230.909L296.479 236.145L298.933 237.8L304.362 232.564Z" fill="#0066CF"/>
<path d="M297.959 244.327L288.67 238.001L298.062 234.587L300.539 236.252L297.959 244.327Z" fill="#0066CF"/>
<path d="M310.653 233.422C308.073 235.919 303.429 236.252 300.332 234.171C297.236 232.09 296.823 228.344 299.404 225.847C301.984 223.349 306.628 223.016 309.724 225.097C312.82 227.262 313.233 230.925 310.653 233.422Z" fill="#0066CF"/>
<path d="M255.234 275.897L257.688 277.552L263.117 272.316L260.663 270.66L255.234 275.897Z" fill="#0066CF"/>
<path d="M261.527 264.223L270.815 270.466L261.423 273.963L258.946 272.298L261.527 264.223Z" fill="#0066CF"/>
<path d="M258.769 283.088C261.316 280.918 261.2 277.493 258.509 275.439C255.819 273.384 251.573 273.478 249.025 275.648C246.478 277.818 246.594 281.243 249.285 283.297C251.976 285.352 256.222 285.258 258.769 283.088Z" fill="#0066CF"/>
<path d="M279.06 226.452L276.382 226.582L276.809 232.316L279.488 232.186L279.06 226.452Z" fill="#0066CF"/>
<path d="M283.51 236.585L273.395 237.085L276.595 230.592L279.381 230.425L283.51 236.585Z" fill="#0066CF"/>
<path d="M282.787 223.432C282.994 225.763 280.723 227.845 277.833 228.011C274.943 228.177 272.363 226.346 272.157 224.015C271.95 221.684 274.221 219.603 277.111 219.437C280.001 219.27 282.581 221.102 282.787 223.432Z" fill="#0066CF"/>
<path d="M280.543 282.034L283.222 281.905L282.795 276.171L280.116 276.301L280.543 282.034Z" fill="#0066CF"/>
<path d="M275.975 271.965L286.089 271.465L282.89 277.959L280.207 278.042L275.975 271.965Z" fill="#0066CF"/>
<path d="M275.976 284.868C275.769 282.121 278.349 279.79 281.652 279.624C284.955 279.457 287.948 281.538 288.154 284.202C288.36 286.949 285.78 289.28 282.478 289.447C279.072 289.613 276.182 287.615 275.976 284.868Z" fill="#0066CF"/>
<path d="M313.689 259.235L314.063 257.092L307.011 256.293L306.637 258.436L313.689 259.235Z" fill="#0066CF"/>
<path d="M300.539 260.727L301.984 252.652L309.208 256.481L308.795 258.646L300.539 260.727Z" fill="#0066CF"/>
<path d="M317.568 262.558C314.885 262.225 313.027 260.227 313.336 258.063C313.749 255.898 316.226 254.4 318.91 254.65C321.593 254.983 323.451 256.981 323.141 259.145C322.728 261.309 320.251 262.891 317.568 262.558Z" fill="#0066CF"/>
<path d="M245.884 249.297L245.511 251.44L252.563 252.24L252.936 250.096L245.884 249.297Z" fill="#0066CF"/>
<path d="M259.05 247.74L257.605 255.898L250.38 252.069L250.793 249.821L259.05 247.74Z" fill="#0066CF"/>
<path d="M241.195 245.16C244.394 245.493 246.665 247.907 246.149 250.487C245.736 253.068 242.743 254.9 239.543 254.483C236.344 254.15 234.073 251.736 234.59 249.156C235.002 246.658 237.995 244.827 241.195 245.16Z" fill="#0066CF"/>
<path d="M279.794 308.26C242.846 308.26 212.916 284.036 212.916 254.317C212.916 224.598 242.949 200.373 279.794 200.373C316.639 200.373 346.672 224.598 346.672 254.317C346.672 284.036 316.639 308.26 279.794 308.26ZM279.794 201.039C243.465 201.039 213.845 224.931 213.845 254.234C213.845 283.536 243.465 307.428 279.794 307.428C316.123 307.428 345.743 283.536 345.743 254.234C345.743 224.931 316.123 201.039 279.794 201.039Z" fill="white"/>
<path d="M226.746 83.9121C200.841 83.9121 179.787 66.9299 179.787 46.0351C179.787 25.1403 200.841 8.15813 226.746 8.15813C252.651 8.15813 273.705 25.1403 273.705 46.0351C273.705 66.9299 252.651 83.9121 226.746 83.9121ZM226.746 8.99059C201.357 8.99059 180.819 25.6398 180.819 46.0351C180.819 66.4304 201.46 83.0796 226.746 83.0796C252.135 83.0796 272.673 66.4304 272.673 46.0351C272.673 25.6398 252.135 8.99059 226.746 8.99059Z" fill="#0066CF"/>
<path d="M226.746 57.9393C234.897 57.9393 241.504 52.6096 241.504 46.0351C241.504 39.4606 234.897 34.1309 226.746 34.1309C218.595 34.1309 211.987 39.4606 211.987 46.0351C211.987 52.6096 218.595 57.9393 226.746 57.9393Z" fill="#0066CF"/>
<path d="M212.503 36.0455L209.613 34.2141L208.375 35.546L211.265 37.2942L214.155 41.956L218.696 37.1277L212.503 36.0455Z" fill="#0066CF"/>
<path d="M208.581 30.9675C210.129 31.9665 210.439 33.7979 209.201 35.1298C207.962 36.3785 205.692 36.6283 204.04 35.6293C202.492 34.6304 202.183 32.7989 203.421 31.467C204.763 30.1351 207.033 29.9686 208.581 30.9675Z" fill="#0066CF"/>
<path d="M242.433 54.6927L239.543 50.0309L234.899 54.8592L241.195 55.9414L244.085 57.7728L245.323 56.4408L242.433 54.6927Z" fill="#0066CF"/>
<path d="M245.839 60.6864C247.834 60.6864 249.451 59.3819 249.451 57.7728C249.451 56.1636 247.834 54.8591 245.839 54.8591C243.844 54.8591 242.227 56.1636 242.227 57.7728C242.227 59.3819 243.844 60.6864 245.839 60.6864Z" fill="#0066CF"/>
<path d="M226.746 54.5262C232.56 54.5262 237.273 50.7246 237.273 46.0351C237.273 41.3456 232.56 37.544 226.746 37.544C220.932 37.544 216.219 41.3456 216.219 46.0351C216.219 50.7246 220.932 54.5262 226.746 54.5262Z" fill="#00ADFF"/>
<path d="M225.817 45.2858C227.159 44.2036 227.159 42.4555 225.817 41.3733C224.475 40.2911 222.308 40.2911 220.966 41.3733C219.624 42.4555 219.624 44.2036 220.966 45.2858C222.308 46.368 224.475 46.368 225.817 45.2858Z" fill="#0066CF"/>
<path d="M232.629 50.7801C233.97 49.6979 233.97 47.9497 232.629 46.8675C231.287 45.7853 229.12 45.7853 227.778 46.8675C226.436 47.9497 226.436 49.6979 227.778 50.7801C229.12 51.8623 231.287 51.8623 232.629 50.7801Z" fill="#0066CF"/>
<path d="M240.782 35.7958L243.362 33.7979L242.02 32.6324L239.44 34.7136L233.351 36.3785L238.718 40.7073L240.782 35.7958Z" fill="#0066CF"/>
<path d="M245.013 34.2141C247.008 34.2141 248.626 32.9097 248.626 31.3005C248.626 29.6914 247.008 28.3869 245.013 28.3869C243.018 28.3869 241.401 29.6914 241.401 31.3005C241.401 32.9097 243.018 34.2141 245.013 34.2141Z" fill="#0066CF"/>
<path d="M214.774 51.3628L212.71 56.2743L210.129 58.3555L211.471 59.5209L214.051 57.4398L220.141 55.6916L214.774 51.3628Z" fill="#0066CF"/>
<path d="M208.478 63.6832C210.473 63.6832 212.09 62.3788 212.09 60.7696C212.09 59.1605 210.473 57.856 208.478 57.856C206.483 57.856 204.866 59.1605 204.866 60.7696C204.866 62.3788 206.483 63.6832 208.478 63.6832Z" fill="#0066CF"/>
<path d="M227.675 30.3848V27.6377H225.817V30.3848L223.134 34.8801H230.358L227.675 30.3848Z" fill="#0066CF"/>
<path d="M226.746 27.8042C229.026 27.8042 230.874 26.3134 230.874 24.4743C230.874 22.6353 229.026 21.1445 226.746 21.1445C224.466 21.1445 222.618 22.6353 222.618 24.4743C222.618 26.3134 224.466 27.8042 226.746 27.8042Z" fill="#0066CF"/>
<path d="M227.675 64.0162V61.4356L230.048 57.2733H223.443L225.817 61.4356V64.0162H227.675Z" fill="#0066CF"/>
<path d="M223.546 66.3471C223.546 64.9319 224.991 63.7665 226.746 63.7665C228.5 63.7665 229.945 64.9319 229.945 66.3471C229.945 67.7623 228.5 68.9277 226.746 68.9277C224.991 68.9277 223.546 67.8455 223.546 66.3471Z" fill="#0066CF"/>
<path d="M247.181 46.6178V45.4524H244.497L240.163 43.7874V48.2827L244.497 46.6178H247.181Z" fill="#0066CF"/>
<path d="M248.213 47.9497C249.524 47.9497 250.587 47.0925 250.587 46.0351C250.587 44.9776 249.524 44.1204 248.213 44.1204C246.902 44.1204 245.839 44.9776 245.839 46.0351C245.839 47.0925 246.902 47.9497 248.213 47.9497Z" fill="#0066CF"/>
<path d="M213.329 48.6157V43.5377L208.478 45.3691H205.382V46.701H208.478L213.329 48.6157Z" fill="#0066CF"/>
<path d="M204.143 42.3723C206.62 42.3723 208.685 44.0372 208.685 46.0351C208.685 48.033 206.62 49.6979 204.143 49.6979C201.666 49.6979 199.602 48.033 199.602 46.0351C199.602 44.0372 201.666 42.3723 204.143 42.3723Z" fill="#0066CF"/>
</svg>
